<svg width="56" height="56" viewBox="0 0 56 56" fill="none" xmlns="http://www.w3.org/2000/svg">
<path fill-rule="evenodd" clip-rule="evenodd" d="M28 56C43.464 56 56 43.464 56 28C56 12.536 43.464 0 28 0C12.536 0 0 12.536 0 28C0 43.464 12.536 56 28 56Z" fill="#FF4F12"/>
<path d="M24.9374 23.0999C26.6288 23.0999 27.9999 21.7287 27.9999 20.0374C27.9999 18.346 26.6288 16.9749 24.9374 16.9749C23.246 16.9749 21.8749 18.346 21.8749 20.0374C21.8749 21.7287 23.246 23.0999 24.9374 23.0999ZM24.9374 21.8749C23.9226 21.8749 23.0999 21.0522 23.0999 20.0374C23.0999 19.0225 23.9226 18.1999 24.9374 18.1999C25.9522 18.1999 26.7749 19.0225 26.7749 20.0374C26.7749 21.0522 25.9522 21.8749 24.9374 21.8749Z" fill="white"/>
<path d="M31.6749 23.0999C33.028 23.0999 34.1249 22.003 34.1249 20.6499C34.1249 19.2968 33.028 18.1999 31.6749 18.1999C30.3218 18.1999 29.2249 19.2968 29.2249 20.6499C29.2249 22.003 30.3218 23.0999 31.6749 23.0999ZM31.6749 21.8749C30.9984 21.8749 30.4499 21.3264 30.4499 20.6499C30.4499 19.9733 30.9984 19.4249 31.6749 19.4249C32.3514 19.4249 32.8999 19.9733 32.8999 20.6499C32.8999 21.3264 32.3514 21.8749 31.6749 21.8749Z" fill="white"/>
<path d="M37.7999 23.0999C39.153 23.0999 40.2499 22.003 40.2499 20.6499C40.2499 19.2968 39.153 18.1999 37.7999 18.1999C36.4468 18.1999 35.3499 19.2968 35.3499 20.6499C35.3499 22.003 36.4468 23.0999 37.7999 23.0999ZM37.7999 21.8749C37.1234 21.8749 36.5749 21.3264 36.5749 20.6499C36.5749 19.9733 37.1234 19.4249 37.7999 19.4249C38.4764 19.4249 39.0249 19.9733 39.0249 20.6499C39.0249 21.3264 38.4764 21.8749 37.7999 21.8749Z" fill="white"/>
<path d="M18.1999 23.0999C19.553 23.0999 20.6499 22.003 20.6499 20.6499C20.6499 19.2968 19.553 18.1999 18.1999 18.1999C16.8468 18.1999 15.7499 19.2968 15.7499 20.6499C15.7499 22.003 16.8468 23.0999 18.1999 23.0999ZM18.1999 21.8749C17.5234 21.8749 16.9749 21.3264 16.9749 20.6499C16.9749 19.9733 17.5234 19.4249 18.1999 19.4249C18.8764 19.4249 19.4249 19.9733 19.4249 20.6499C19.4249 21.3264 18.8765 21.8749 18.1999 21.8749Z" fill="white"/>
<path d="M35.3497 27.9999H34.1247V26.7749C34.1247 26.0983 33.5762 25.5499 32.8997 25.5499H30.2406C30.0793 25.0934 29.8303 24.6783 29.5139 24.3249H32.8997C34.2528 24.3249 35.3497 25.4218 35.3497 26.7749V27.9999Z" fill="white"/>
<path d="M35.6389 24.3249H39.0247C40.3778 24.3249 41.4747 25.4218 41.4747 26.7749V29.2249H40.2497V26.7749C40.2497 26.0983 39.7012 25.5499 39.0247 25.5499H36.3656C36.2042 25.0934 35.9553 24.6783 35.6389 24.3249Z" fill="white"/>
<path d="M20.3607 24.3249C20.0443 24.6783 19.7954 25.0934 19.634 25.5499H16.9749C16.2984 25.5499 15.7499 26.0983 15.7499 26.7749V29.2249H14.5249V26.7749C14.5249 25.4218 15.6218 24.3249 16.9749 24.3249H20.3607Z" fill="white"/>
<path d="M20.6499 27.9999V26.7749C20.6499 25.4218 21.7468 24.3249 23.0999 24.3249H26.7749C28.128 24.3249 29.2249 25.4218 29.2249 26.7749V27.9999H27.9999V26.7749C27.9999 26.0983 27.4514 25.5499 26.7749 25.5499H23.0999C22.4234 25.5499 21.8749 26.0983 21.8749 26.7749V27.9999H20.6499Z" fill="white"/>
<path d="M18.1999 40.2499V30.4499H37.7999V40.2499H39.0249V30.4499C39.0249 29.7733 38.4764 29.2249 37.7999 29.2249H18.1999C17.5234 29.2249 16.9749 29.7733 16.9749 30.4499V40.2499H18.1999Z" fill="white"/>
</svg>
