<svg width="165" height="47" viewBox="0 0 165 47" fill="none" xmlns="http://www.w3.org/2000/svg">
<g clip-path="url(#clip0_168_10841)">
<path d="M165 42.2887C165 44.8916 162.876 47 160.249 47H4.75759C2.13156 47 0 44.8916 0 42.2887V4.71747C0 2.11579 2.13156 0 4.75759 0H160.247C162.876 0 164.999 2.11579 164.999 4.71747L165 42.2887Z" fill="black"/>
<path d="M36.1609 23.0841C36.125 19.1462 39.4247 17.2305 39.5756 17.1413C37.7068 14.4497 34.8103 14.0819 33.7924 14.0526C31.3597 13.7997 28.9999 15.4906 27.7607 15.4906C26.4967 15.4906 24.5883 14.077 22.5316 14.1186C19.8849 14.1589 17.4088 15.6727 16.0509 18.0234C13.2483 22.8165 15.3385 29.8604 18.0235 33.7344C19.3667 35.6318 20.9361 37.7504 22.9904 37.6758C25.0002 37.594 25.7509 36.4101 28.1762 36.4101C30.5793 36.4101 31.2842 37.6758 33.3793 37.6282C35.5363 37.594 36.8943 35.7222 38.1904 33.8077C39.7426 31.6329 40.3659 29.4911 40.3906 29.3811C40.3399 29.364 36.2017 27.8038 36.1609 23.0841Z" fill="white"/>
<path d="M32.203 11.5042C33.284 10.1688 34.0236 8.352 33.8183 6.5083C32.2537 6.57672 30.2972 7.5774 29.1705 8.8835C28.1736 10.0345 27.2831 11.9209 27.5132 13.6949C29.2706 13.8244 31.0751 12.8188 32.203 11.5042Z" fill="white"/>
<path fill-rule="evenodd" clip-rule="evenodd" d="M62.437 37.404H65.2457L59.9214 21.144H56.6489L51.3506 37.404H54.0851L55.5507 32.628H60.8985L62.437 37.404ZM59.0433 26.378L60.4347 30.6237H56.0157L57.3823 26.378C57.741 25.028 58.0019 24.0065 58.164 23.315H58.2134C58.6203 24.9229 58.8961 25.9443 59.0433 26.378Z" fill="white"/>
<path fill-rule="evenodd" clip-rule="evenodd" d="M77.2349 36.1248C78.3258 34.9678 78.8712 33.3916 78.8712 31.3977C78.8712 29.6127 78.4037 28.1734 77.4662 27.0787C76.5312 25.9852 75.3624 25.439 73.9624 25.439C72.1716 25.439 70.8371 26.1379 69.9577 27.5381H69.9083L69.7611 25.6797H67.4421C67.5064 26.9993 67.5398 28.2858 67.5398 29.5394V42.1814H70.1766V36.0053H70.2261C70.9101 37.1146 72.0331 37.6693 73.5963 37.6693C75.0446 37.6693 76.2579 37.1548 77.2349 36.1248ZM75.4033 28.6707C75.9252 29.4111 76.185 30.3518 76.185 31.493C76.185 32.7319 75.9079 33.7288 75.3538 34.4851C74.801 35.2402 74.028 35.619 73.0349 35.619C72.1889 35.619 71.5013 35.3257 70.972 34.738C70.4426 34.1504 70.1779 33.4307 70.1779 32.5779V30.6231C70.1779 30.4154 70.2188 30.1515 70.3004 29.8289C70.4624 29.1374 70.8087 28.579 71.338 28.1514C71.8661 27.7274 72.4573 27.5124 73.1079 27.5124C74.0676 27.5124 74.8332 27.8985 75.4033 28.6707Z" fill="white"/>
<path fill-rule="evenodd" clip-rule="evenodd" d="M90.8849 36.1248C91.9769 34.9678 92.5224 33.3916 92.5224 31.3977C92.5224 29.6127 92.0536 28.1734 91.1199 27.0787C90.1824 25.9852 89.0136 25.439 87.6148 25.439C85.8227 25.439 84.4883 26.1379 83.6101 27.5381H83.5607L83.4135 25.6797H81.0945C81.1588 26.9993 81.1922 28.2858 81.1922 29.5394V42.1814H83.8291V36.0053H83.8785C84.5612 37.1146 85.6842 37.6693 87.2475 37.6693C88.6958 37.6693 89.9091 37.1548 90.8849 36.1248ZM89.0532 28.6707C89.5751 29.4111 89.8361 30.3518 89.8361 31.493C89.8361 32.7319 89.5591 33.7288 89.005 34.4851C88.4521 35.2402 87.6791 35.619 86.686 35.619C85.8376 35.619 85.1499 35.3245 84.6206 34.738C84.0937 34.1504 83.829 33.4307 83.829 32.5779V30.6231C83.829 30.4154 83.8711 30.1515 83.9515 29.8289C84.1135 29.1374 84.4586 28.579 84.9879 28.1514C85.5173 27.7274 86.1072 27.5124 86.759 27.5124C87.72 27.5124 88.4831 27.8985 89.0532 28.6707Z" fill="white"/>
<path d="M107.78 32.8439C107.78 34.2269 107.294 35.3522 106.318 36.2209C105.246 37.1702 103.753 37.6443 101.835 37.6443C100.064 37.6443 98.6439 37.3071 97.5691 36.6314L98.1801 34.4603C99.3377 35.1518 100.608 35.4988 101.992 35.4988C102.985 35.4988 103.758 35.2765 104.313 34.8342C104.866 34.3919 105.142 33.7981 105.142 33.0577C105.142 32.3979 104.914 31.842 104.458 31.3912C104.004 30.9403 103.246 30.5213 102.187 30.134C99.3055 29.0722 97.8659 27.5169 97.8659 25.4716C97.8659 24.135 98.3705 23.039 99.381 22.1862C100.388 21.3322 101.731 20.9058 103.41 20.9058C104.908 20.9058 106.152 21.1636 107.145 21.678L106.486 23.8014C105.559 23.3029 104.51 23.0537 103.336 23.0537C102.409 23.0537 101.684 23.2797 101.164 23.7294C100.725 24.1313 100.505 24.6213 100.505 25.2016C100.505 25.8443 100.756 26.3757 101.261 26.7936C101.7 27.1797 102.498 27.5975 103.655 28.0484C105.071 28.6116 106.111 29.2702 106.781 30.0252C107.447 30.7778 107.78 31.7198 107.78 32.8439Z" fill="white"/>
<path d="M116.5 27.634H113.593V33.3263C113.593 34.7741 114.105 35.4974 115.132 35.4974C115.603 35.4974 115.994 35.4571 116.303 35.3765L116.376 37.3545C115.857 37.5464 115.173 37.6429 114.326 37.6429C113.284 37.6429 112.47 37.3289 111.883 36.7021C111.298 36.0741 111.004 35.0209 111.004 33.5413V27.6315H109.272V25.6767H111.004V23.53L113.593 22.7578V25.6767H116.5V27.634Z" fill="white"/>
<path fill-rule="evenodd" clip-rule="evenodd" d="M128.05 35.8842C129.092 34.7272 129.613 33.2476 129.613 31.4454C129.613 29.6922 129.109 28.2615 128.097 27.1533C127.04 26.0109 125.638 25.4404 123.897 25.4404C122.09 25.4404 120.653 26.0195 119.588 27.1777C118.521 28.3348 117.989 29.8229 117.989 31.6397C117.989 33.3759 118.506 34.8163 119.54 35.9575C120.574 37.0986 121.96 37.6692 123.702 37.6692C125.509 37.6692 126.958 37.0754 128.05 35.8842ZM126.17 28.7478C126.644 29.5211 126.878 30.4485 126.878 31.5298C126.878 32.6098 126.633 33.5469 126.147 34.335C125.577 35.2855 124.786 35.762 123.78 35.762C122.752 35.762 121.955 35.2953 121.385 34.3594C120.911 33.5873 120.678 32.6599 120.678 31.5786C120.678 30.4644 120.911 29.5224 121.385 28.7478C121.938 27.8131 122.743 27.3451 123.803 27.3451C124.827 27.3451 125.617 27.8119 126.17 28.7478Z" fill="white"/>
<path d="M138.19 27.9701C137.929 27.9224 137.651 27.898 137.359 27.898C136.432 27.898 135.714 28.2438 135.21 28.9365C134.771 29.5474 134.55 30.3196 134.55 31.2518V37.4035H131.915L131.94 29.3715C131.94 28.0202 131.906 26.7898 131.841 25.6805H134.137L134.234 27.9237H134.307C134.585 27.1527 135.024 26.532 135.625 26.0665C136.213 25.6475 136.847 25.4385 137.531 25.4385C137.775 25.4385 137.995 25.4557 138.19 25.4862V27.9701Z" fill="white"/>
<path fill-rule="evenodd" clip-rule="evenodd" d="M149.88 32.1681C149.946 31.8468 149.977 31.4533 149.977 30.9866C149.977 29.5241 149.627 28.2926 148.931 27.2968C148.051 26.0433 146.756 25.4165 145.046 25.4165C143.304 25.4165 141.921 26.0433 140.896 27.2968C139.918 28.471 139.43 29.9432 139.43 31.7111C139.43 33.5121 139.955 34.9477 141.004 36.0167C142.055 37.0858 143.5 37.6209 145.34 37.6209C146.87 37.6209 148.196 37.3802 149.319 36.8964L148.906 35.0882C147.945 35.4584 146.876 35.6429 145.705 35.6429C144.646 35.6429 143.784 35.3692 143.118 34.823C142.383 34.2121 142.001 33.3263 141.97 32.1681H149.88ZM147.463 30.3105C147.48 29.5385 147.308 28.8716 146.951 28.3085C146.494 27.5839 145.793 27.2223 144.849 27.2223C143.987 27.2223 143.286 27.5754 142.75 28.284C142.311 28.8473 142.05 29.5229 141.97 30.3097L147.463 30.3105Z" fill="white"/>
<path d="M52.605 7.79861C52.8858 7.63245 53.2025 7.49316 53.5587 7.37832C53.9136 7.26347 54.3316 7.20605 54.8127 7.20605C55.5881 7.20605 56.1992 7.3881 56.6469 7.75097C57.0946 8.11384 57.3185 8.60378 57.3185 9.22077C57.3185 9.71071 57.1687 10.1212 56.8694 10.4536C56.5701 10.7859 56.1867 11.0071 55.7229 11.1171V11.1525C55.979 11.1928 56.2214 11.2612 56.4489 11.3602C56.6777 11.4592 56.8782 11.5911 57.0489 11.7573C57.2208 11.9234 57.3568 12.1165 57.457 12.3388C57.5559 12.56 57.6067 12.8043 57.6067 13.0744C57.6067 13.5166 57.5164 13.8881 57.3358 14.1886C57.1552 14.4892 56.9201 14.7335 56.6283 14.9241C56.3376 15.1135 56.0111 15.2504 55.6512 15.3322C55.2913 15.4141 54.9314 15.4568 54.5715 15.4568C54.1869 15.4568 53.8072 15.4165 53.4312 15.3383C53.0552 15.2601 52.7078 15.1294 52.3875 14.9474L52.7114 13.9638C52.9192 14.0665 53.1876 14.1654 53.5154 14.2607C53.8431 14.356 54.1745 14.4024 54.5109 14.4024C55.0625 14.4024 55.4893 14.2803 55.7886 14.0359C56.0879 13.7903 56.2388 13.4629 56.2388 13.0524C56.2388 12.775 56.1782 12.549 56.0582 12.3706C55.937 12.1922 55.7812 12.0529 55.5895 11.9491C55.3978 11.8465 55.1837 11.7756 54.9475 11.7365C54.7113 11.6974 54.4776 11.6766 54.2463 11.6766H53.7058V10.7029H54.2463C54.4937 10.7029 54.7236 10.6723 54.9363 10.6076C55.1478 10.5453 55.3321 10.4561 55.4879 10.3412C55.6438 10.2264 55.7662 10.0895 55.854 9.93189C55.9406 9.77428 55.9851 9.5959 55.9851 9.39797C55.9851 9.04243 55.8565 8.76386 55.6005 8.56227C55.3445 8.36068 55.0006 8.25927 54.569 8.25927C54.2734 8.25927 53.9766 8.30692 53.681 8.401C53.3854 8.4963 53.1208 8.59893 52.8882 8.70889L52.605 7.79861Z" fill="white"/>
<path fill-rule="evenodd" clip-rule="evenodd" d="M62.8141 14.6611L62.9094 15.3246L62.9093 15.3258H64.0744C64.0187 15.002 63.9903 14.5438 63.9903 13.9513V11.8302C63.9903 10.2419 63.2272 9.44775 61.7023 9.44775C60.9045 9.44775 60.2379 9.61392 59.7024 9.94502L59.9658 10.7856C60.4036 10.5022 60.9107 10.3592 61.4858 10.3592C62.2922 10.3592 62.6954 10.738 62.6954 11.4967V11.603C61.607 11.603 60.7685 11.7826 60.1761 12.1418C59.5837 12.501 59.2881 13.041 59.2881 13.7594C59.2881 14.0038 59.3314 14.2298 59.4192 14.4351C59.5082 14.6416 59.6307 14.8187 59.7914 14.969C59.951 15.1193 60.139 15.2378 60.3554 15.3246C60.5719 15.4113 60.8106 15.4553 61.0752 15.4553C61.8198 15.4553 62.3874 15.1902 62.7783 14.6611L62.8141 14.6611ZM61.1136 12.7295C61.4673 12.5474 62.0065 12.457 62.73 12.457V13.3453C62.73 13.5114 62.6954 13.6666 62.6237 13.8132C62.5507 13.9598 62.4579 14.0845 62.3417 14.1871C62.2267 14.2897 62.0943 14.3716 61.9435 14.4302C61.7913 14.4901 61.633 14.5194 61.4661 14.5194C61.2113 14.5194 60.9998 14.4449 60.8328 14.2946C60.6659 14.1443 60.583 13.9195 60.583 13.619C60.583 13.2084 60.7599 12.9115 61.1136 12.7295Z" fill="white"/>
<path d="M70.24 9.56543V10.6198H67.8159V15.3249H66.521V9.56543H70.24Z" fill="white"/>
<path fill-rule="evenodd" clip-rule="evenodd" d="M77.462 13.6299C77.5894 13.2512 77.6537 12.8321 77.6537 12.3739C77.6537 11.939 77.5919 11.5419 77.4682 11.1815C77.3445 10.821 77.1751 10.5132 76.9587 10.2566C76.7422 9.99999 76.4887 9.80085 76.1968 9.6579C75.9049 9.51617 75.5858 9.44531 75.2433 9.44531C74.3627 9.44531 73.7072 9.78986 73.2756 10.4765H73.2508L73.1779 9.56385H72.0388C72.0536 9.89617 72.066 10.2187 72.0734 10.5303C72.0821 10.843 72.0858 11.1534 72.0858 11.4613V17.6716H73.3819V14.6379H73.4066C73.743 15.1828 74.2946 15.4553 75.0627 15.4553C75.4473 15.4553 75.7961 15.3795 76.1127 15.2293C76.4281 15.0802 76.7002 14.8701 76.9277 14.6013C77.1565 14.3337 77.3334 14.0099 77.462 13.6299ZM76.2327 11.6336C76.3007 11.8742 76.3353 12.1369 76.3353 12.4216C76.3353 13.0374 76.1968 13.531 75.9247 13.8987C75.6526 14.2665 75.2729 14.4498 74.7844 14.4498C74.5766 14.4498 74.3874 14.4131 74.2155 14.3374C74.0436 14.2628 73.8951 14.1578 73.7715 14.0234C73.6478 13.889 73.5525 13.7314 73.4845 13.5493C73.4153 13.3673 73.3819 13.1693 73.3819 12.9567V11.9964C73.3819 11.7826 73.4227 11.581 73.5031 11.3916C73.5835 11.2023 73.6886 11.0398 73.8209 10.9054C73.952 10.771 74.1054 10.6634 74.2823 10.5853C74.4591 10.5071 74.6397 10.4667 74.8227 10.4667C75.0552 10.4667 75.2655 10.5156 75.4535 10.6146C75.6415 10.7136 75.8023 10.8479 75.9334 11.0178C76.0644 11.1876 76.1646 11.3929 76.2327 11.6336Z" fill="white"/>
<path d="M84.6139 9.56544L83.1372 13.5594C82.7859 14.5075 82.4433 15.2833 82.1119 15.8881C81.7792 16.4929 81.4626 16.9327 81.1583 17.2101C80.7106 17.6047 80.2345 17.8466 79.7299 17.9321L79.4182 16.8545C79.7534 16.7678 80.0737 16.598 80.3779 16.345C80.6809 16.0921 80.9246 15.7769 81.1101 15.3969C81.1744 15.2711 81.2053 15.1843 81.2053 15.1367C81.2053 15.089 81.1806 14.9986 81.1336 14.8642L79.0212 9.56664H80.4484L81.5529 12.7786C81.6098 12.9289 81.6654 13.0988 81.7211 13.2881C81.778 13.4775 81.8373 13.6877 81.9016 13.9161H81.9264C81.9659 13.7891 82.0105 13.6302 82.0575 13.436C82.1057 13.2429 82.17 13.0193 82.2492 12.7664L83.2336 9.56664H84.6139V9.56544Z" fill="white"/>
<path d="M86.8581 11.9592H87.4567C87.8957 11.9592 88.2371 11.881 88.4758 11.7222C88.7145 11.5634 88.8357 11.3703 88.8357 11.1406C88.8357 10.9036 88.7343 10.7142 88.529 10.5725C88.3261 10.4308 88.0429 10.3587 87.683 10.3587C87.4505 10.3587 87.2167 10.3966 86.983 10.4711C86.7467 10.5468 86.5291 10.6397 86.3287 10.7497L85.9936 9.92133C86.3287 9.74051 86.6627 9.61588 86.9966 9.54868C87.328 9.48148 87.6607 9.44727 87.9971 9.44727C88.263 9.44727 88.5289 9.47293 88.7961 9.52424C89.062 9.57555 89.3007 9.6623 89.5085 9.78448C89.7162 9.90666 89.8882 10.0667 90.018 10.2646C90.1504 10.4625 90.2159 10.7069 90.2159 11.0001C90.2159 11.1822 90.1801 11.3422 90.1071 11.4803C90.0366 11.6183 89.9401 11.7405 89.8202 11.8468C89.7014 11.9531 89.5666 12.0411 89.4194 12.1071C89.2723 12.1743 89.1201 12.2244 88.9705 12.2561V12.2916C89.161 12.316 89.3477 12.3636 89.5283 12.4345C89.7076 12.5054 89.8684 12.5982 90.0143 12.7131C90.1566 12.8279 90.2728 12.966 90.3619 13.1273C90.4484 13.2898 90.4917 13.473 90.4917 13.6783C90.4917 14.018 90.4101 14.3026 90.2407 14.5311C90.0737 14.7608 89.8585 14.9416 89.5976 15.076C89.3391 15.2104 89.0521 15.3069 88.7405 15.3668C88.4288 15.4255 88.1246 15.456 87.8302 15.456C87.4703 15.456 87.1129 15.4181 86.7629 15.3436C86.4104 15.2679 86.0938 15.1518 85.813 14.9942L86.1507 14.1524C86.3584 14.2635 86.5947 14.3564 86.863 14.4309C87.1314 14.5055 87.4048 14.5433 87.6843 14.5433C88.1233 14.5433 88.4622 14.459 88.6984 14.2892C88.9322 14.1194 89.0509 13.908 89.0509 13.6551C89.0509 13.4889 89.0126 13.3496 88.9322 13.2348C88.8518 13.12 88.7392 13.0271 88.597 12.9562C88.4523 12.8854 88.2853 12.8353 88.0924 12.8084C87.9019 12.7803 87.6917 12.7669 87.4691 12.7669H86.8581V11.9592Z" fill="white"/>
<path d="M93.779 9.56549V11.6034C93.779 12.0701 93.7716 12.4892 93.7543 12.8594C93.737 13.2308 93.7185 13.6218 93.6937 14.0323L93.7184 14.0555C93.8706 13.755 94.0202 13.4617 94.1674 13.1722C94.317 12.8838 94.4667 12.5894 94.6188 12.2888L96.0584 9.56299H97.7367V15.3225H96.5123V13.2846C96.5123 12.8582 96.5247 12.4318 96.5432 12.0054C96.563 11.5777 96.5841 11.1477 96.6088 10.7127H96.5482C96.4134 11.0683 96.2773 11.3762 96.1401 11.6376C96.0052 11.8979 95.8692 12.1666 95.7344 12.444C95.4858 12.918 95.2397 13.3921 94.9948 13.8662C94.7512 14.3402 94.4927 14.8265 94.2218 15.3237H92.5435V9.56549H93.779Z" fill="white"/>
<path d="M104.58 9.56543V10.6198H102.805V15.3249H101.531V10.6198H99.7673V9.56543H104.58Z" fill="white"/>
<path fill-rule="evenodd" clip-rule="evenodd" d="M111.17 12.4869C111.177 12.3879 111.182 12.2828 111.182 12.1729C111.182 11.7623 111.126 11.3885 111.013 11.0537C110.901 10.7189 110.739 10.4294 110.527 10.1887C110.316 9.94675 110.06 9.76104 109.761 9.63153C109.458 9.5008 109.125 9.43604 108.758 9.43604C108.343 9.43604 107.963 9.51546 107.623 9.67307C107.285 9.8319 106.994 10.0482 106.753 10.3255C106.515 10.6016 106.328 10.9279 106.195 11.3029C106.066 11.678 106 12.0873 106 12.5296C106 12.9719 106.066 13.3702 106.195 13.7257C106.328 14.0813 106.519 14.3855 106.766 14.6384C107.014 14.8913 107.318 15.0868 107.678 15.2249C108.038 15.3629 108.446 15.4326 108.9 15.4326C109.653 15.4326 110.304 15.3141 110.857 15.077L110.654 14.1876C110.174 14.3696 109.65 14.46 109.082 14.46C108.539 14.46 108.1 14.311 107.769 14.0153C107.437 13.7196 107.264 13.2981 107.247 12.7532H111.134C111.15 12.675 111.162 12.5858 111.17 12.4869ZM109.616 10.7458C109.836 11.0256 109.945 11.3909 109.945 11.8417H107.248C107.289 11.3982 107.441 11.0354 107.704 10.7507C107.968 10.466 108.286 10.3243 108.663 10.3243C109.078 10.3243 109.396 10.466 109.616 10.7458Z" fill="white"/>
<path fill-rule="evenodd" clip-rule="evenodd" d="M116.41 9.61315C116.642 9.57405 116.936 9.54229 117.296 9.51785C117.656 9.49341 118.024 9.48242 118.401 9.48242C118.639 9.48242 118.91 9.49708 119.21 9.52396C119.509 9.55084 119.797 9.61437 120.067 9.71334C120.34 9.8123 120.566 9.96014 120.751 10.158C120.935 10.356 121.029 10.6235 121.029 10.9632C121.029 11.1379 120.995 11.2943 120.932 11.4312C120.867 11.5692 120.783 11.6902 120.674 11.7928C120.565 11.8954 120.441 11.981 120.302 12.0469C120.162 12.1141 120.017 12.1642 119.864 12.1948L119.876 12.2302C120.299 12.3011 120.644 12.4513 120.908 12.681C121.171 12.9107 121.303 13.226 121.303 13.6292C121.303 14.0323 121.19 14.3525 120.968 14.5895C120.743 14.8265 120.469 15.0049 120.14 15.1234C119.811 15.2419 119.466 15.3177 119.101 15.3494C118.738 15.38 118.412 15.3971 118.125 15.3971C117.803 15.3971 117.489 15.3897 117.183 15.3726C116.873 15.3568 116.617 15.3409 116.41 15.325V9.61315ZM117.656 11.9126H118.315C118.516 11.9126 118.706 11.8992 118.886 11.8711C119.066 11.8442 119.223 11.8002 119.359 11.7416C119.497 11.6817 119.6 11.6035 119.678 11.5046C119.754 11.4056 119.792 11.2859 119.792 11.1429C119.792 10.8827 119.683 10.6908 119.461 10.5687C119.241 10.4465 118.895 10.3854 118.424 10.3854C118.289 10.3854 118.171 10.3891 118.069 10.3976C117.97 10.4049 117.833 10.4172 117.656 10.433V11.9126ZM118.057 14.4955C117.951 14.487 117.816 14.476 117.656 14.4601V12.741H118.34C118.846 12.741 119.244 12.8034 119.541 12.9292C119.835 13.0551 119.985 13.2823 119.985 13.6122C119.985 13.8003 119.937 13.9518 119.845 14.0655C119.754 14.1803 119.633 14.2707 119.48 14.3367C119.328 14.4039 119.159 14.4491 118.976 14.4723C118.792 14.4968 118.613 14.5078 118.437 14.5078C118.291 14.5078 118.166 14.5041 118.057 14.4955Z" fill="white"/>
</g>
<defs>
<clipPath id="clip0_168_10841">
<rect width="165" height="47" fill="white"/>
</clipPath>
</defs>
</svg>
