<svg width="165" height="47" viewBox="0 0 165 47" fill="none" xmlns="http://www.w3.org/2000/svg">
<g clip-path="url(#clip0_168_10821)">
<path d="M158.889 47H6.11111C2.75 47 0 44.3563 0 41.125V5.875C0 2.64375 2.75 0 6.11111 0H158.889C162.25 0 165 2.64375 165 5.875V41.125C165 44.3563 162.25 47 158.889 47Z" fill="black"/>
<path fill-rule="evenodd" clip-rule="evenodd" d="M59.0689 26.6601V28.8654H64.4108C64.2512 30.1059 63.8328 31.0116 63.1949 31.6418C62.4176 32.4097 61.2016 33.2563 59.0689 33.2563C55.7801 33.2563 53.2089 30.6375 53.2089 27.3886C53.2089 24.1397 55.7801 21.5208 59.0689 21.5208C60.8429 21.5208 62.1386 22.21 63.0953 23.096L64.6699 21.5405C63.3345 20.2804 61.5605 19.3154 59.0689 19.3154C54.5642 19.3154 50.7771 22.9386 50.7771 27.3886C50.7771 31.8387 54.5642 35.4617 59.0689 35.4617C61.5007 35.4617 63.3345 34.6741 64.7695 33.1973C66.2445 31.7402 66.703 29.6924 66.703 28.0384C66.703 27.5264 66.6632 27.0539 66.5833 26.6601H59.0689ZM72.7759 25.0651C69.8657 25.0651 67.4938 27.2507 67.4938 30.2633C67.4938 33.2563 69.8657 35.4617 72.7759 35.4617C75.686 35.4617 78.0578 33.2563 78.0578 30.2633C78.0578 27.2507 75.686 25.0651 72.7759 25.0651ZM79.0166 30.2633C79.0166 27.2507 81.3885 25.0651 84.2986 25.0651C87.2087 25.0651 89.5807 27.2507 89.5807 30.2633C89.5807 33.2563 87.2087 35.4617 84.2986 35.4617C81.3885 35.4617 79.0166 33.2563 79.0166 30.2633ZM81.3287 30.2634C81.3287 32.1143 82.7041 33.4139 84.2986 33.4139C85.8932 33.4139 87.2684 32.1143 87.2684 30.2634C87.2684 28.3927 85.8932 27.113 84.2986 27.113C82.7041 27.113 81.3287 28.3927 81.3287 30.2634ZM69.8057 30.2634C69.8057 32.1143 71.181 33.4139 72.7757 33.4139C74.3702 33.4139 75.7455 32.1143 75.7455 30.2634C75.7455 28.3927 74.3702 27.113 72.7757 27.113C71.181 27.113 69.8057 28.3927 69.8057 30.2634ZM110.621 25.0651C113.352 25.0651 114.687 27.2113 115.126 28.3731L115.365 28.9639L108.329 31.8387C108.867 32.8822 109.704 33.4139 110.88 33.4139C112.056 33.4139 112.873 32.8428 113.471 31.9765L115.265 33.1579C114.687 34.0046 113.292 35.4617 110.88 35.4617C107.89 35.4617 105.658 33.1776 105.658 30.2633C105.658 27.172 107.91 25.0651 110.621 25.0651ZM107.95 30.1059C107.89 28.0974 109.525 27.0736 110.701 27.0736C111.618 27.0736 112.395 27.5264 112.654 28.1763L107.95 30.1059ZM104.542 35.1466H102.229V19.8666H104.542V35.1466ZM98.442 26.2268H98.3623C97.8441 25.6164 96.8475 25.0651 95.5917 25.0651C92.9608 25.0651 90.5489 27.3492 90.5489 30.283C90.5489 33.1973 92.9608 35.4617 95.5917 35.4617C96.8475 35.4617 97.8441 34.9104 98.3623 34.2803H98.442V35.0285C98.442 37.0173 97.3658 38.0805 95.6316 38.0805C94.2165 38.0805 93.3394 37.0764 92.9807 36.2296L90.9675 37.0567C91.5455 38.435 93.0803 40.1284 95.6316 40.1284C98.3424 40.1284 100.635 38.5532 100.635 34.7135V25.3801H98.442V26.2268ZM92.8611 30.283C92.8611 32.0946 94.1966 33.4139 95.7911 33.4139C97.3658 33.4139 98.6015 32.0946 98.6015 30.283C98.6015 28.4519 97.3658 27.113 95.7911 27.113C94.1966 27.113 92.8611 28.4519 92.8611 30.283ZM125.956 19.867H120.424V35.147H122.732V29.3581H125.956C128.515 29.3581 131.03 27.528 131.03 24.6128C131.03 21.6975 128.515 19.867 125.956 19.867ZM122.733 27.2312H126.016C127.742 27.2312 128.722 25.7965 128.722 24.6123C128.722 23.4054 127.742 21.9936 126.016 21.9936H122.733V27.2312ZM140.283 25.0369C138.611 25.0369 136.88 25.7643 136.164 27.3761L138.213 28.2214C138.651 27.3761 139.467 27.1009 140.323 27.1009C141.517 27.1009 142.73 27.8086 142.75 29.0666V29.2239C142.332 28.988 141.437 28.6342 140.343 28.6342C138.134 28.6342 135.885 29.8333 135.885 32.0743C135.885 34.1185 137.696 35.4356 139.726 35.4356C141.278 35.4356 142.133 34.7476 142.671 33.9417H142.75V35.1211H144.979V29.2633C144.979 26.5505 142.929 25.0369 140.283 25.0369ZM138.194 32.1134C138.194 33.0374 139.248 33.4108 140.004 33.4108C141.338 33.4108 142.571 32.4084 142.75 30.993C142.133 30.6982 141.656 30.4819 140.641 30.4819C139.507 30.4819 138.194 30.9341 138.194 32.1134ZM153.098 25.371L150.451 31.9955H150.371L147.625 25.371H145.138L149.257 34.6296L146.909 39.7798H149.317L155.664 25.3708L153.098 25.371ZM134.612 35.1465H132.304V19.8665H134.612V35.1465Z" fill="white"/>
<path d="M12.911 7.693C12.5512 8.0692 12.3384 8.6533 12.3384 9.4101V36.4411C12.3384 37.1985 12.5512 37.782 12.911 38.1582L13.0026 38.2463L28.3306 23.1043V22.747L13.0026 7.604L12.911 7.693Z" fill="url(#paint0_linear_168_10821)"/>
<path d="M33.4391 28.1538L28.3301 23.1043V22.747L33.4403 17.6987L33.5555 17.7636L39.609 21.1615C41.3381 22.132 41.3381 23.7199 39.609 24.6909L33.5555 28.0888L33.4391 28.1538Z" fill="url(#paint1_linear_168_10821)"/>
<path d="M33.556 28.0879L28.3306 22.9253L12.9116 38.1573C13.4817 38.7533 14.4225 38.8272 15.4826 38.2323L33.556 28.0879Z" fill="url(#paint2_linear_168_10821)"/>
<path d="M33.5559 17.7629L15.4819 7.61785C14.4218 7.02299 13.481 7.09682 12.9109 7.69289L28.3299 22.9259L33.5559 17.7629Z" fill="url(#paint3_linear_168_10821)"/>
<path opacity="0.2" d="M33.4399 27.9738L15.4809 38.0538C14.4763 38.6176 13.5782 38.5801 13.002 38.0669L12.9099 38.1579L13.0014 38.246C13.5776 38.7592 14.4763 38.7968 15.4809 38.2323L33.5549 28.0873L33.4399 27.9738Z" fill="black"/>
<path opacity="0.12" d="M12.911 37.9798C12.5512 37.6034 12.3384 37.0193 12.3384 36.2627V36.4412C12.3384 37.198 12.5512 37.782 12.911 38.1583L13.0032 38.0673L12.911 37.9798Z" fill="black"/>
<path opacity="0.12" d="M39.6089 24.5119L33.4402 27.9747L33.5554 28.0884L39.6089 24.6905C40.4732 24.2053 40.9059 23.5658 40.9059 22.9263C40.833 23.5046 40.393 24.0719 39.6089 24.5119Z" fill="black"/>
<path opacity="0.25" d="M15.4821 7.79706L39.6091 21.3391C40.3933 21.7791 40.8333 22.346 40.9061 22.9253C40.9067 22.2858 40.474 21.6457 39.6091 21.1605L15.4821 7.61846C13.753 6.64789 12.3384 7.45407 12.3384 9.41056V9.58913C12.3384 7.63273 13.753 6.82656 15.4821 7.79706Z" fill="white"/>
<path fill-rule="evenodd" clip-rule="evenodd" d="M51.1919 15.9249H52.1041V14.3685H57.7344V15.9249H58.6466V13.4674H57.8177V7.03516H52.8616V10.6613C52.8748 11.9856 52.5607 12.9207 51.918 13.4674H51.1919V15.9249ZM53.1104 13.4674C53.5938 12.7571 53.8294 11.8214 53.8149 10.6613V7.93626H56.8632V13.4674H53.1104Z" fill="white"/>
<path fill-rule="evenodd" clip-rule="evenodd" d="M63.3631 14.5321C64.448 14.5321 65.3554 14.1622 66.0852 13.4209C66.8137 12.6803 67.1786 11.7738 67.1786 10.7019C67.1786 9.63659 66.8125 8.73189 66.0803 7.98769C65.347 7.24348 64.442 6.87109 63.3631 6.87109C62.2781 6.87109 61.3707 7.24167 60.6421 7.98299C59.9124 8.72354 59.5486 9.63009 59.5486 10.7019C59.5486 11.7738 59.9124 12.6803 60.6421 13.4209C61.3707 14.1622 62.2781 14.5321 63.3631 14.5321ZM63.3631 13.631C62.5681 13.631 61.8963 13.3565 61.3466 12.8069C60.798 12.2572 60.5226 11.5553 60.5226 10.7019C60.5226 9.84858 60.798 9.14669 61.3466 8.59699C61.8963 8.04736 62.5681 7.77285 63.3631 7.77285C64.1581 7.77285 64.8311 8.04736 65.3796 8.59699C65.9294 9.14662 66.2048 9.84859 66.2048 10.7019C66.2048 11.5553 65.9294 12.2572 65.3796 12.8069C64.8311 13.3565 64.1581 13.631 63.3631 13.631Z" fill="white"/>
<path d="M71.9799 14.5321C70.8877 14.5321 69.9719 14.1669 69.2324 13.4364C68.4918 12.7059 68.1233 11.7941 68.1233 10.7019C68.1233 9.60969 68.4918 8.69789 69.2324 7.96739C69.9719 7.23687 70.8877 6.87109 71.9799 6.87109C73.0987 6.87109 74.0085 7.27039 74.7069 8.06949L74.0424 8.70505C73.5386 8.08318 72.8498 7.77286 71.9799 7.77286C71.1704 7.77286 70.4877 8.0426 69.9319 8.58209C69.3749 9.12158 69.0971 9.82829 69.0971 10.7019C69.0971 11.5755 69.3749 12.2828 69.9319 12.8217C70.4877 13.3612 71.1704 13.631 71.9799 13.631C72.8716 13.631 73.6316 13.2764 74.261 12.5663L74.9244 13.2215C74.5849 13.6243 74.1607 13.9436 73.6484 14.1787C73.1373 14.4145 72.5805 14.5321 71.9799 14.5321Z" fill="white"/>
<path d="M78.7821 14.369H77.8277V7.93678H75.7544V7.03564H80.8554V7.93678H78.7821V14.369Z" fill="white"/>
<path d="M87.4049 7.03565L84.5958 13.222C84.208 14.0957 83.6323 14.5326 82.8651 14.5326C82.6367 14.5326 82.3914 14.4783 82.128 14.369L82.3769 13.4983C82.5364 13.5873 82.7019 13.6314 82.8747 13.6314C83.0958 13.6314 83.2673 13.589 83.3882 13.5037C83.5091 13.4184 83.6214 13.2625 83.7253 13.0375L83.9947 12.4533L81.4961 7.03565H82.6162L84.4508 11.2454H84.4919L86.2849 7.03565H87.4049Z" fill="white"/>
<path d="M88.4851 14.3689V7.03564H93.8557V14.3689H92.9012V7.93674H89.4384V14.3689H88.4851Z" fill="white"/>
<path d="M95.5559 14.3689V7.03564H96.5092V10.1795H100.221V7.03564H101.175V14.3689H100.221V11.0604H96.5092V14.3689H95.5559Z" fill="white"/>
<path fill-rule="evenodd" clip-rule="evenodd" d="M106.22 14.5321C107.305 14.5321 108.213 14.1622 108.942 13.4209C109.671 12.6803 110.036 11.7738 110.036 10.7019C110.036 9.63659 109.67 8.73189 108.938 7.98769C108.204 7.24348 107.299 6.87109 106.22 6.87109C105.135 6.87109 104.228 7.24167 103.499 7.98299C102.77 8.72354 102.406 9.63009 102.406 10.7019C102.406 11.7738 102.77 12.6803 103.499 13.4209C104.228 14.1622 105.135 14.5321 106.22 14.5321ZM106.22 13.631C105.425 13.631 104.754 13.3565 104.204 12.8069C103.655 12.2572 103.38 11.5553 103.38 10.7019C103.38 9.84858 103.655 9.14669 104.204 8.59699C104.754 8.04736 105.425 7.77285 106.22 7.77285C107.015 7.77285 107.688 8.04736 108.237 8.59699C108.786 9.14662 109.062 9.84859 109.062 10.7019C109.062 11.5553 108.786 12.2572 108.237 12.8069C107.688 13.3565 107.015 13.631 106.22 13.631Z" fill="white"/>
<path fill-rule="evenodd" clip-rule="evenodd" d="M113.94 14.3689V7.03564H116.625C117.206 7.03564 117.708 7.22545 118.134 7.60373C118.559 7.98335 118.772 8.45953 118.772 9.03253C118.772 9.38099 118.68 9.68837 118.496 9.95457C118.314 10.2213 118.07 10.4225 117.765 10.5591V10.5997C118.131 10.7226 118.432 10.9345 118.668 11.2346C118.902 11.5354 119.021 11.884 119.021 12.2796C119.021 12.8806 118.797 13.3789 118.351 13.7746C117.905 14.1709 117.379 14.369 116.77 14.369L113.94 14.3689ZM114.893 10.1795H116.625C116.985 10.1795 117.274 10.0625 117.491 9.82618C117.708 9.59102 117.817 9.33326 117.817 9.05337C117.817 8.77348 117.712 8.51681 117.501 8.28533C117.29 8.05311 117.012 7.93675 116.667 7.93675H114.893V10.1795ZM116.812 13.4678H114.893V11.0604H116.77C117.15 11.0604 117.458 11.1856 117.693 11.4345C117.928 11.6839 118.046 11.9584 118.046 12.2586C118.046 12.5594 117.932 12.8364 117.704 13.0881C117.475 13.3413 117.178 13.4678 116.812 13.4678Z" fill="white"/>
</g>
<defs>
<linearGradient id="paint0_linear_168_10821" x1="21.618" y1="-10.7672" x2="-2.89002" y2="-4.17239" gradientUnits="userSpaceOnUse">
<stop stop-color="#00A0FF"/>
<stop offset="0.00657" stop-color="#00A1FF"/>
<stop offset="0.2601" stop-color="#00BEFF"/>
<stop offset="0.5122" stop-color="#00D2FF"/>
<stop offset="0.7604" stop-color="#00DFFF"/>
<stop offset="1" stop-color="#00E3FF"/>
</linearGradient>
<linearGradient id="paint1_linear_168_10821" x1="41.8601" y1="10.4818" x2="11.9241" y2="10.4818" gradientUnits="userSpaceOnUse">
<stop stop-color="#FFE000"/>
<stop offset="0.4087" stop-color="#FFBD00"/>
<stop offset="0.7754" stop-color="#FFA500"/>
<stop offset="1" stop-color="#FF9C00"/>
</linearGradient>
<linearGradient id="paint2_linear_168_10821" x1="12.449" y1="15.0119" x2="-6.90398" y2="47.9939" gradientUnits="userSpaceOnUse">
<stop stop-color="#FF3A44"/>
<stop offset="1" stop-color="#C31162"/>
</linearGradient>
<linearGradient id="paint3_linear_168_10821" x1="0.871278" y1="3.48165" x2="9.51349" y2="18.2099" gradientUnits="userSpaceOnUse">
<stop stop-color="#32A071"/>
<stop offset="0.0685" stop-color="#2DA771"/>
<stop offset="0.4762" stop-color="#15CF74"/>
<stop offset="0.8009" stop-color="#06E775"/>
<stop offset="1" stop-color="#00F076"/>
</linearGradient>
<clipPath id="clip0_168_10821">
<rect width="165" height="47" fill="white"/>
</clipPath>
</defs>
</svg>
