<svg width="545" height="430" viewBox="0 0 545 430" fill="none" xmlns="http://www.w3.org/2000/svg">
<path d="M183.223 413.642C95.6959 401.372 22.4211 346.768 5.40309 280.112C-11.6149 213.456 14.4151 171.94 43.8823 130.524C62.556 104.268 53.5664 63.2587 118.453 30.1214C183.339 -3.01599 260.045 10.8996 295.548 30.1218C331.051 49.344 354.063 38.2982 375.817 37.9173C400.422 37.511 470.15 58.9678 511.06 108.534C559.013 166.658 553.333 260.154 511.689 321.324C494.147 347.098 454.159 379.854 420.898 390.875C311.078 427.262 270.749 425.911 183.223 413.642Z" fill="#F0F5F9"/>
<line y1="-0.5" x2="238.307" y2="-0.5" transform="matrix(-0.323211 0.946327 -0.94608 -0.323933 164.55 37.3916)" stroke="#A7A7A7"/>
<line y1="-0.5" x2="268.759" y2="-0.5" transform="matrix(0.955299 -0.295642 0.294971 0.955506 88.6938 262.907)" stroke="#A7A7A7"/>
<line y1="-0.5" x2="232.496" y2="-0.5" transform="matrix(0.778031 0.628226 -0.627279 0.778795 164.55 37.3916)" stroke="#A7A7A7"/>
<line y1="-0.5" x2="158.664" y2="-0.5" transform="matrix(-0.507516 0.861643 -0.861089 -0.508455 425.964 46.7393)" stroke="#A7A7A7"/>
<line y1="-0.5" x2="240.52" y2="-0.5" transform="matrix(0.320238 -0.947337 0.947095 0.320955 268.416 411.305)" stroke="#A7A7A7"/>
<line y1="-0.5" x2="261.58" y2="-0.5" transform="matrix(0.999361 0.035736 -0.0356472 0.999364 164.55 37.3916)" stroke="#A7A7A7"/>
<line y1="-0.5" x2="185.54" y2="-0.5" transform="matrix(-0.761075 -0.648664 0.647728 -0.761872 486.649 303.805)" stroke="#A7A7A7"/>
<line y1="-0.5" x2="264.131" y2="-0.5" transform="matrix(0.229754 0.973249 -0.97312 0.230297 425.964 46.7393)" stroke="#A7A7A7"/>
<line y1="-0.5" x2="245.37" y2="-0.5" transform="matrix(-0.898919 0.438115 -0.437233 -0.899348 488.983 303.805)" stroke="#A7A7A7"/>
<line y1="-0.5" x2="233.07" y2="-0.5" transform="matrix(-0.771107 -0.636706 0.635762 -0.771885 268.416 411.305)" stroke="#A7A7A7"/>
<path fill-rule="evenodd" clip-rule="evenodd" d="M271.916 430C289.963 430 304.593 415.352 304.593 397.283C304.593 379.214 289.963 364.565 271.916 364.565C253.87 364.565 239.24 379.214 239.24 397.283C239.24 415.352 253.87 430 271.916 430Z" fill="#0053CD"/>
<rect width="45.7473" height="45.8043" transform="translate(249.043 374.381)" fill="#0053CD"/>
<path d="M271.202 381.538H272.631V414.088H271.202V381.538Z" fill="white"/>
<path fill-rule="evenodd" clip-rule="evenodd" d="M254.761 397.283C254.761 387.793 262.438 380.106 271.916 380.106C281.395 380.106 289.072 387.793 289.072 397.283C289.072 406.773 281.395 414.46 271.916 414.46C262.438 414.46 254.761 406.773 254.761 397.283ZM287.642 397.283C287.642 388.595 280.594 381.538 271.916 381.538C263.239 381.538 256.191 388.595 256.191 397.283C256.191 405.972 263.239 413.028 271.916 413.028C280.594 413.028 287.642 405.972 287.642 397.283Z" fill="white"/>
<path fill-rule="evenodd" clip-rule="evenodd" d="M261.909 397.283C261.909 387.793 266.384 380.106 271.916 380.106C277.449 380.106 281.924 387.793 281.924 397.283C281.924 406.773 277.449 414.46 271.916 414.46C266.384 414.46 261.909 406.773 261.909 397.283ZM280.494 397.283C280.494 388.752 276.563 381.538 271.916 381.538C267.27 381.538 263.339 388.752 263.339 397.283C263.339 405.814 267.27 413.028 271.916 413.028C276.563 413.028 280.494 405.814 280.494 397.283Z" fill="white"/>
<path d="M257.463 403.796H286.355V405.227H257.463V403.796Z" fill="white"/>
<path d="M257.463 389.339H286.355V390.77H257.463V389.339Z" fill="white"/>
<path d="M255.662 396.567H288.171V397.999H255.662V396.567Z" fill="white"/>
<path fill-rule="evenodd" clip-rule="evenodd" d="M164.55 70.1086C182.597 70.1086 197.227 55.4605 197.227 37.3912C197.227 19.3219 182.597 4.67383 164.55 4.67383C146.504 4.67383 131.874 19.3219 131.874 37.3912C131.874 55.4605 146.504 70.1086 164.55 70.1086Z" fill="#0053CD"/>
<rect width="45.7473" height="45.8043" transform="translate(141.677 14.4893)" fill="#0053CD"/>
<path d="M154.458 38.8656C155.358 43.1884 161.077 42.1434 159.99 36.2891C159.147 31.6371 153.3 33.2975 154.458 38.8656Z" fill="white"/>
<path fill-rule="evenodd" clip-rule="evenodd" d="M167.41 28.8029H180.276C181.063 28.8029 181.706 29.447 181.706 30.2343V44.5482C181.706 45.3354 181.063 45.9796 180.276 45.9796H167.41V53.1365L147.396 50.2737V24.5088L167.41 21.646V28.8029ZM170.955 37.1908L179.833 30.2343H167.41V34.3996L170.955 37.1908ZM159.261 42.5156C157.103 43.6464 154.644 42.6301 153.743 41.2846C151.498 37.9495 152.785 32.1381 157.317 32.1381C160.362 32.1381 161.734 34.5571 161.734 37.5487C161.734 39.8675 160.805 41.6997 159.261 42.5156ZM167.41 36.2175V44.5482H180.276V31.7086L171.899 38.3073C171.627 38.522 171.298 38.6222 170.984 38.6222C170.669 38.6222 170.341 38.522 170.069 38.3073L167.41 36.2175Z" fill="white"/>
<path fill-rule="evenodd" clip-rule="evenodd" d="M101.531 295.624C123.445 295.624 141.21 277.838 141.21 255.896C141.21 233.955 123.445 216.168 101.531 216.168C79.6171 216.168 61.8523 233.955 61.8523 255.896C61.8523 277.838 79.6171 295.624 101.531 295.624Z" fill="#ED3536"/>
<rect width="55.5503" height="55.6196" transform="translate(73.7561 228.087)" fill="#ED3536"/>
<path fill-rule="evenodd" clip-rule="evenodd" d="M101.011 237.629C101.566 237.229 102.417 236.777 103.476 236.777C104.083 236.777 104.76 236.916 105.455 237.281C105.68 237.403 105.854 237.559 105.993 237.768C106.479 238.498 107.694 240.584 108.354 243.26C108.527 243.973 108.545 244.703 108.423 245.416L107.243 252.073C107.225 252.212 107.329 252.351 107.486 252.351H119.325C120.714 252.351 121.946 253.272 122.241 254.61C122.311 254.906 122.345 255.219 122.345 255.584C122.345 257.374 121.286 258.208 120.575 258.573C120.314 258.695 120.262 259.043 120.471 259.234C120.887 259.634 121.391 260.329 121.391 261.337C121.391 262.64 120.384 263.579 119.898 263.961C119.776 264.048 119.759 264.24 119.863 264.361C120.141 264.674 120.592 265.352 120.592 266.377C120.592 267.611 119.655 268.654 118.96 269.106C118.752 269.245 118.717 269.506 118.839 269.715C119.099 270.114 119.429 270.844 119.429 271.905C119.429 273.625 117.658 274.998 115.974 274.998H95.4208C95.2125 274.998 94.9868 274.964 94.7958 274.859L91.8968 273.451C91.4107 273.226 91.1156 272.739 91.1156 272.217V257.739C91.1156 257.304 91.324 256.905 91.6711 256.644L93.4244 255.323C93.4939 255.271 93.5633 255.201 93.6327 255.132C94.3792 254.28 99.1184 248.753 100.177 245.225C100.212 245.103 100.229 244.964 100.229 244.842V239.141C100.229 238.55 100.524 237.994 101.011 237.629ZM104.604 238.811C104.205 238.62 103.84 238.515 103.476 238.515C102.99 238.515 102.503 238.689 102.035 239.037C102.017 239.054 101.965 239.106 101.965 239.159V244.842C101.965 245.155 101.931 245.451 101.844 245.729C100.715 249.466 96.2888 254.749 94.9521 256.279C94.7958 256.453 94.6396 256.592 94.466 256.731L92.8516 257.948V271.991L95.4902 273.295H115.974C116.808 273.295 117.693 272.6 117.693 271.939C117.693 271.279 117.485 270.862 117.363 270.671C116.738 269.662 117.033 268.324 118.023 267.681C118.37 267.472 118.873 266.899 118.873 266.412C118.873 265.943 118.682 265.682 118.578 265.56C118.214 265.143 118.023 264.587 118.075 264.031C118.127 263.475 118.405 262.971 118.856 262.623C119.255 262.328 119.672 261.841 119.672 261.389C119.672 261.267 119.672 260.92 119.29 260.555C118.787 260.068 118.544 259.373 118.648 258.678C118.752 257.982 119.186 257.391 119.811 257.078C120.384 256.783 120.627 256.348 120.627 255.636C120.627 255.427 120.609 255.219 120.575 255.045C120.453 254.523 119.932 254.141 119.342 254.141H107.503C106.93 254.141 106.375 253.88 105.993 253.428C105.611 252.977 105.455 252.386 105.559 251.812L106.739 245.155C106.826 244.668 106.809 244.182 106.687 243.712C106.114 241.401 105.073 239.558 104.604 238.811Z" fill="white"/>
<path fill-rule="evenodd" clip-rule="evenodd" d="M82.4359 254.576H91.1156C92.0704 254.576 92.8516 255.358 92.8516 256.314V273.278C92.8516 274.234 92.0704 275.016 91.1156 275.016H82.4359C81.4811 275.016 80.7 274.234 80.7 273.278V256.314C80.7 255.358 81.4811 254.576 82.4359 254.576ZM91.1156 273.278V256.314H82.4359V273.278H91.1156Z" fill="white"/>
<path fill-rule="evenodd" clip-rule="evenodd" d="M425.964 93.4783C451.745 93.4783 472.645 72.5524 472.645 46.7391C472.645 20.9258 451.745 0 425.964 0C400.182 0 379.283 20.9258 379.283 46.7391C379.283 72.5524 400.182 93.4783 425.964 93.4783Z" fill="#ED3536"/>
<rect width="65.3533" height="65.4348" transform="translate(393.287 14.0215)" fill="#ED3536"/>
<path d="M421.879 26.2905H430.048V34.4699H421.879V26.2905Z" fill="white"/>
<path d="M421.879 38.5596H430.048V67.1873H421.879V38.5596Z" fill="white"/>
<path fill-rule="evenodd" clip-rule="evenodd" d="M345.439 216.169C363.486 216.169 378.116 201.521 378.116 183.452C378.116 165.382 363.486 150.734 345.439 150.734C327.392 150.734 312.762 165.382 312.762 183.452C312.762 201.521 327.392 216.169 345.439 216.169Z" fill="#0053CD"/>
<rect width="45.7473" height="45.8043" transform="translate(322.565 160.55)" fill="#0053CD"/>
<path d="M351.872 186.315C352.273 186.315 352.587 186 352.587 185.599C352.587 185.198 352.273 184.883 351.872 184.883C351.472 184.883 351.158 185.198 351.158 185.599C351.158 186 351.472 186.315 351.872 186.315Z" fill="white"/>
<path d="M354.732 186.315C355.132 186.315 355.446 186 355.446 185.599C355.446 185.198 355.132 184.883 354.732 184.883C354.331 184.883 354.017 185.198 354.017 185.599C354.017 186 354.331 186.315 354.732 186.315Z" fill="white"/>
<path d="M357.591 186.315C357.991 186.315 358.306 186 358.306 185.599C358.306 185.198 357.991 184.883 357.591 184.883C357.191 184.883 356.876 185.198 356.876 185.599C356.876 186 357.191 186.315 357.591 186.315Z" fill="white"/>
<path d="M356.876 173.432H358.306V182.02H356.876V173.432Z" fill="white"/>
<path d="M332.573 173.432H334.002V182.02H332.573V173.432Z" fill="white"/>
<path fill-rule="evenodd" clip-rule="evenodd" d="M361.236 180.589C361.994 180.589 362.594 181.19 362.594 181.935V189.249C362.594 189.621 362.437 189.965 362.194 190.208C361.951 190.451 361.608 190.609 361.236 190.609H329.642C328.884 190.609 328.284 190.008 328.284 189.263V181.949C328.284 181.763 328.327 181.577 328.398 181.419C328.598 180.933 329.085 180.589 329.642 180.589H361.236ZM361.165 189.177V182.02H329.714V189.177H361.165Z" fill="white"/>
<path fill-rule="evenodd" clip-rule="evenodd" d="M483.148 344.701C508.929 344.701 529.829 323.775 529.829 297.962C529.829 272.148 508.929 251.223 483.148 251.223C457.367 251.223 436.467 272.148 436.467 297.962C436.467 323.775 457.367 344.701 483.148 344.701Z" fill="#ED3536"/>
<rect width="65.3533" height="65.4348" transform="translate(450.471 265.246)" fill="#ED3536"/>
<path fill-rule="evenodd" clip-rule="evenodd" d="M505.879 289.723L495.606 277.433C493.972 275.47 491.235 274.857 488.928 275.941L471.977 283.936L468.586 285.47C466.422 286.451 464.257 287.433 462.092 288.373C459.866 289.334 458.722 290.847 458.681 292.831C458.62 297.779 458.64 302.708 458.681 307.615C458.681 309.292 459.621 310.641 461.193 311.275C462.952 311.968 464.75 312.622 466.493 313.257L466.667 313.32C467.177 313.504 467.683 313.688 468.188 313.872C468.694 314.056 469.199 314.24 469.71 314.424L470.567 314.752C471.452 315.081 472.337 315.411 473.223 315.741L473.238 315.747C476.52 316.97 479.81 318.196 483.087 319.434C483.904 319.741 484.639 319.986 485.333 320.15C486.048 320.334 486.804 320.436 487.518 320.436H487.906C487.994 320.436 488.066 320.421 488.149 320.404L488.192 320.395H488.233C489.193 320.334 490.112 320.15 490.99 319.761C492.875 318.928 494.76 318.053 496.609 317.194C496.984 317.02 497.358 316.846 497.73 316.674L497.893 316.592C498.625 316.257 499.352 315.918 500.081 315.578C501.041 315.131 502.003 314.682 502.979 314.24C503.346 314.077 503.673 313.852 503.959 313.586L504.306 313.422C506.348 312.482 507.655 310.417 507.655 308.147V294.651C507.655 292.851 507.022 291.093 505.879 289.723ZM479.799 295.039V292.402L485.782 299.558C486.559 300.479 487.049 301.624 487.212 302.81L481.759 300.826C480.391 300.336 479.737 299.395 479.799 298.025C479.829 297.502 479.825 296.967 479.821 296.447C479.82 296.276 479.819 296.106 479.819 295.939C479.799 295.653 479.799 295.346 479.799 295.039ZM472.959 313.565C476.564 314.908 480.18 316.256 483.781 317.635C484.741 318.003 485.558 318.248 486.313 318.391C486.906 318.023 487.253 317.41 487.253 316.715L487.232 304.896L486.824 304.711C485.874 304.364 484.92 304.016 483.965 303.669C483.01 303.321 482.055 302.973 481.106 302.626C478.941 301.849 477.756 300.131 477.879 297.923C477.91 297.43 477.906 296.926 477.902 296.437C477.9 296.276 477.899 296.116 477.899 295.96V290.05L475.551 287.249C474.815 286.369 473.815 285.838 472.712 285.715L469.587 287.126C467.361 288.148 465.135 289.15 462.888 290.132C460.887 290.991 460.642 292.095 460.642 292.851C460.581 297.984 460.601 303.076 460.642 307.595C460.642 308.474 461.112 309.128 461.928 309.455C463.705 310.151 465.523 310.826 467.3 311.459C467.526 311.542 467.751 311.624 467.975 311.706C468.798 312.006 469.601 312.299 470.404 312.605L471.262 312.932C471.827 313.143 472.393 313.354 472.959 313.565Z" fill="white"/>
</svg>
