<svg width="354" height="460" viewBox="0 0 354 460" fill="none" xmlns="http://www.w3.org/2000/svg">
<path d="M340.222 305.353C329.877 379.229 283.834 441.076 227.63 455.44C171.426 469.803 136.419 447.833 101.498 422.962C79.3591 407.2 44.78 414.788 16.8387 360.021C-11.1027 305.255 0.630882 240.513 16.839 210.547C33.0471 180.581 23.7333 161.158 23.4122 142.796C23.0696 122.029 41.1619 63.1761 82.9561 28.6462C131.966 -11.8272 210.801 -7.0334 262.38 28.1156C284.112 42.9216 311.733 76.6731 321.025 104.746C351.707 197.439 350.567 231.478 340.222 305.353Z" fill="#F0F5F9"/>
<line y1="-0.5" x2="165.382" y2="-0.5" transform="matrix(0.709718 0.704486 -0.704257 0.709945 70.5835 306.139)" stroke="#A7A7A7"/>
<line y1="-0.5" x2="234.336" y2="-0.5" transform="matrix(0.0587032 -0.998275 0.998273 0.0587409 187.958 422.649)" stroke="#A7A7A7"/>
<line y1="-0.5" x2="201.562" y2="-0.5" transform="matrix(0.728572 -0.68497 0.684735 0.728792 70.5835 306.139)" stroke="#A7A7A7"/>
<line y1="-0.5" x2="187.968" y2="-0.5" transform="matrix(0.846811 0.531894 -0.531648 0.846965 42.5408 88.7385)" stroke="#A7A7A7"/>
<line y1="-0.5" x2="131.44" y2="-0.5" transform="matrix(-0.949398 -0.314075 0.313893 -0.949458 326.503 230)" stroke="#A7A7A7"/>
<line y1="-0.5" x2="216.222" y2="-0.5" transform="matrix(-0.129694 -0.991554 0.991543 -0.129776 70.5835 306.139)" stroke="#A7A7A7"/>
<line y1="-0.5" x2="146.824" y2="-0.5" transform="matrix(-0.312571 0.949894 -0.949835 -0.312753 247.607 49.2515)" stroke="#A7A7A7"/>
<line y1="-0.5" x2="208.834" y2="-0.5" transform="matrix(0.98196 -0.189087 0.18897 0.981983 42.5408 88.7385)" stroke="#A7A7A7"/>
<line y1="-0.5" x2="199.025" y2="-0.5" transform="matrix(0.396412 0.918073 -0.91798 0.396627 247.607 47.2803)" stroke="#A7A7A7"/>
<line y1="-0.5" x2="236.497" y2="-0.5" transform="matrix(-0.585822 0.81044 -0.810261 -0.586069 326.503 230.983)" stroke="#A7A7A7"/>
<path fill-rule="evenodd" clip-rule="evenodd" d="M326.429 258.088C341.656 258.088 354 245.733 354 230.492C354 215.251 341.656 202.896 326.429 202.896C311.201 202.896 298.857 215.251 298.857 230.492C298.857 245.733 311.201 258.088 326.429 258.088Z" fill="#0053CD"/>
<rect width="38.6" height="38.6345" transform="translate(307.129 211.176)" fill="#0053CD"/>
<path d="M325.826 217.212L327.032 217.212L327.032 244.667L325.826 244.667L325.826 217.212Z" fill="white"/>
<path fill-rule="evenodd" clip-rule="evenodd" d="M311.954 230.493C311.954 222.488 318.431 216.005 326.429 216.005C334.426 216.005 340.904 222.488 340.904 230.493C340.904 238.498 334.426 244.981 326.429 244.981C318.431 244.981 311.954 238.498 311.954 230.493ZM339.697 230.493C339.697 223.165 333.751 217.212 326.429 217.212C319.107 217.212 313.16 223.165 313.16 230.493C313.16 237.822 319.107 243.774 326.429 243.774C333.751 243.774 339.697 237.822 339.697 230.493Z" fill="white"/>
<path fill-rule="evenodd" clip-rule="evenodd" d="M317.985 230.493C317.985 222.488 321.76 216.005 326.429 216.005C331.097 216.005 334.872 222.488 334.872 230.493C334.872 238.498 331.097 244.981 326.429 244.981C321.76 244.981 317.985 238.498 317.985 230.493ZM333.666 230.493C333.666 223.297 330.349 217.212 326.429 217.212C322.508 217.212 319.191 223.297 319.191 230.493C319.191 237.689 322.508 243.774 326.429 243.774C330.349 243.774 333.666 237.689 333.666 230.493Z" fill="white"/>
<path d="M314.233 235.986L338.612 235.986L338.612 237.194L314.233 237.194L314.233 235.986Z" fill="white"/>
<path d="M314.233 223.792L338.612 223.792L338.612 225L314.233 225L314.233 223.792Z" fill="white"/>
<path d="M312.714 229.889L340.144 229.889L340.144 231.097L312.714 231.097L312.714 229.889Z" fill="white"/>
<path fill-rule="evenodd" clip-rule="evenodd" d="M42.5936 116.24C57.8209 116.24 70.1651 103.885 70.1651 88.6442C70.1651 73.4033 57.8209 61.0481 42.5936 61.0481C27.3664 61.0481 15.0222 73.4033 15.0222 88.6442C15.0222 103.885 27.3664 116.24 42.5936 116.24Z" fill="#0053CD"/>
<rect width="38.6" height="38.6346" transform="translate(23.2936 69.3279)" fill="#0053CD"/>
<path d="M34.0775 89.8887C34.8374 93.5348 39.6624 92.6535 38.7456 87.7155C38.0339 83.7917 33.1004 85.1922 34.0775 89.8887Z" fill="white"/>
<path fill-rule="evenodd" clip-rule="evenodd" d="M45.0061 81.4012L55.8623 81.4012C56.5258 81.4012 57.0686 81.9444 57.0686 82.6085L57.0686 94.6818C57.0686 95.3458 56.5258 95.8891 55.8623 95.8891L45.0061 95.8891L45.0061 101.926L28.1186 99.5111L28.1186 77.7792L45.0061 75.3645L45.0061 81.4012ZM47.9976 88.4761L55.4884 82.6085L45.0061 82.6085L45.0061 86.1218L47.9976 88.4761ZM38.1304 92.9674C36.309 93.9212 34.2343 93.064 33.4743 91.9291C31.5805 89.116 32.6661 84.2142 36.4899 84.2142C39.0593 84.2142 40.2173 86.2546 40.2173 88.7779C40.2173 90.7338 39.4332 92.2792 38.1304 92.9674ZM45.0061 87.6551L45.0061 94.6818L55.8623 94.6818L55.8623 83.852L48.7937 89.4178C48.5645 89.5989 48.2871 89.6834 48.0217 89.6834C47.7563 89.6834 47.4789 89.5989 47.2497 89.4178L45.0061 87.6551Z" fill="white"/>
<path fill-rule="evenodd" clip-rule="evenodd" d="M188.03 456.249C206.52 456.249 221.509 441.246 221.509 422.74C221.509 404.233 206.52 389.23 188.03 389.23C169.539 389.23 154.55 404.233 154.55 422.74C154.55 441.246 169.539 456.249 188.03 456.249Z" fill="#ED3536"/>
<rect width="46.8714" height="46.9134" transform="translate(164.594 399.284)" fill="#ED3536"/>
<path fill-rule="evenodd" clip-rule="evenodd" d="M187.59 407.333C188.059 406.995 188.777 406.614 189.67 406.614C190.183 406.614 190.754 406.732 191.34 407.039C191.53 407.142 191.677 407.274 191.794 407.45C192.204 408.066 193.229 409.825 193.786 412.083C193.933 412.684 193.947 413.299 193.845 413.9L192.849 419.515C192.834 419.633 192.922 419.75 193.054 419.75L203.043 419.75C204.215 419.75 205.255 420.527 205.504 421.656C205.563 421.905 205.592 422.169 205.592 422.477C205.592 423.987 204.698 424.691 204.098 424.998C203.878 425.101 203.834 425.394 204.01 425.556C204.361 425.893 204.786 426.479 204.786 427.329C204.786 428.429 203.937 429.221 203.527 429.543C203.424 429.616 203.409 429.778 203.497 429.88C203.732 430.144 204.112 430.716 204.112 431.581C204.112 432.622 203.321 433.501 202.736 433.883C202.56 434 202.531 434.22 202.633 434.396C202.853 434.733 203.131 435.349 203.131 436.243C203.131 437.694 201.637 438.853 200.216 438.853L182.874 438.853C182.698 438.853 182.508 438.823 182.347 438.735L179.9 437.548C179.49 437.357 179.241 436.947 179.241 436.507L179.241 424.295C179.241 423.928 179.417 423.591 179.71 423.371L181.189 422.257C181.248 422.213 181.307 422.154 181.365 422.096C181.995 421.377 185.994 416.715 186.887 413.739C186.916 413.637 186.931 413.519 186.931 413.417L186.931 408.608C186.931 408.11 187.18 407.64 187.59 407.333ZM190.622 408.33C190.285 408.168 189.978 408.08 189.67 408.08C189.26 408.08 188.85 408.227 188.454 408.52C188.44 408.535 188.396 408.579 188.396 408.623L188.396 413.417C188.396 413.681 188.367 413.93 188.293 414.164C187.341 417.316 183.606 421.773 182.478 423.063C182.347 423.21 182.215 423.327 182.068 423.444L180.706 424.471L180.706 436.316L182.932 437.416L200.216 437.416C200.919 437.416 201.666 436.829 201.666 436.272C201.666 435.715 201.491 435.363 201.388 435.202C200.861 434.352 201.11 433.223 201.945 432.681C202.238 432.505 202.662 432.021 202.662 431.61C202.662 431.214 202.501 430.995 202.413 430.892C202.106 430.54 201.945 430.071 201.989 429.602C202.033 429.133 202.267 428.708 202.648 428.414C202.985 428.165 203.336 427.755 203.336 427.373C203.336 427.271 203.336 426.978 203.014 426.67C202.589 426.259 202.384 425.673 202.472 425.086C202.56 424.5 202.926 424.002 203.453 423.738C203.937 423.488 204.142 423.122 204.142 422.521C204.142 422.345 204.127 422.169 204.098 422.022C203.995 421.583 203.556 421.26 203.058 421.26L193.068 421.26C192.585 421.26 192.116 421.04 191.794 420.659C191.472 420.278 191.34 419.779 191.428 419.296L192.424 413.681C192.497 413.27 192.482 412.86 192.38 412.464C191.897 410.514 191.018 408.96 190.622 408.33Z" fill="white"/>
<path fill-rule="evenodd" clip-rule="evenodd" d="M171.918 421.627L179.241 421.627C180.047 421.627 180.706 422.286 180.706 423.093L180.706 437.401C180.706 438.207 180.047 438.867 179.241 438.867L171.918 438.867C171.112 438.867 170.453 438.207 170.453 437.401L170.453 423.093C170.453 422.286 171.112 421.627 171.918 421.627ZM179.241 437.401L179.241 423.093L171.918 423.093L171.918 437.401L179.241 437.401Z" fill="white"/>
<path fill-rule="evenodd" clip-rule="evenodd" d="M70.9117 345.915C92.6649 345.915 110.299 328.265 110.299 306.492C110.299 284.72 92.6649 267.069 70.9117 267.069C49.1584 267.069 31.5239 284.72 31.5239 306.492C31.5239 328.265 49.1584 345.915 70.9117 345.915Z" fill="#ED3536"/>
<rect width="55.1428" height="55.1922" transform="translate(43.3403 278.896)" fill="#ED3536"/>
<path d="M67.4653 289.244L74.3582 289.244L74.3582 296.143L67.4653 296.143L67.4653 289.244Z" fill="white"/>
<path d="M67.4653 299.593L74.3582 299.593L74.3582 323.739L67.4653 323.739L67.4653 299.593Z" fill="white"/>
<path fill-rule="evenodd" clip-rule="evenodd" d="M201.773 216.389C217.001 216.389 229.345 204.034 229.345 188.793C229.345 173.552 217.001 161.197 201.773 161.197C186.546 161.197 174.202 173.552 174.202 188.793C174.202 204.034 186.546 216.389 201.773 216.389Z" fill="#0053CD"/>
<rect width="38.6" height="38.6346" transform="translate(182.474 169.475)" fill="#0053CD"/>
<path d="M207.202 191.207C207.539 191.207 207.805 190.941 207.805 190.603C207.805 190.265 207.539 189.999 207.202 189.999C206.864 189.999 206.599 190.265 206.599 190.603C206.599 190.941 206.864 191.207 207.202 191.207Z" fill="white"/>
<path d="M209.614 191.207C209.952 191.207 210.217 190.941 210.217 190.603C210.217 190.265 209.952 189.999 209.614 189.999C209.276 189.999 209.011 190.265 209.011 190.603C209.011 190.941 209.276 191.207 209.614 191.207Z" fill="white"/>
<path d="M212.027 191.207C212.364 191.207 212.63 190.941 212.63 190.603C212.63 190.265 212.364 189.999 212.027 189.999C211.689 189.999 211.424 190.265 211.424 190.603C211.424 190.941 211.689 191.207 212.027 191.207Z" fill="white"/>
<path d="M211.424 180.341L212.63 180.341L212.63 187.585L211.424 187.585L211.424 180.341Z" fill="white"/>
<path d="M190.917 180.341L192.124 180.341L192.124 187.585L190.917 187.585L190.917 180.341Z" fill="white"/>
<path fill-rule="evenodd" clip-rule="evenodd" d="M215.103 186.377C215.742 186.377 216.249 186.884 216.249 187.512L216.249 193.682C216.249 193.995 216.116 194.285 215.911 194.49C215.706 194.696 215.416 194.829 215.103 194.829L188.444 194.829C187.805 194.829 187.299 194.321 187.299 193.694L187.299 187.524C187.299 187.367 187.335 187.21 187.395 187.077C187.564 186.667 187.974 186.377 188.444 186.377L215.103 186.377ZM215.042 193.621L215.042 187.585L188.505 187.585L188.505 193.621L215.042 193.621Z" fill="white"/>
<path fill-rule="evenodd" clip-rule="evenodd" d="M242.681 91.6292C264.434 91.6292 282.069 73.9789 282.069 52.2062C282.069 30.4335 264.434 12.7832 242.681 12.7832C220.928 12.7832 203.293 30.4335 203.293 52.2062C203.293 73.9789 220.928 91.6292 242.681 91.6292Z" fill="#ED3536"/>
<rect width="55.1428" height="55.1922" transform="translate(215.109 24.6123)" fill="#ED3536"/>
<path fill-rule="evenodd" clip-rule="evenodd" d="M261.86 45.2578L253.193 34.892C251.814 33.2362 249.505 32.7188 247.558 33.6329L233.255 40.3767L230.394 41.6703C228.568 42.4981 226.741 43.326 224.915 44.1194C223.036 44.93 222.071 46.2064 222.037 47.8794C221.985 52.0533 222.002 56.21 222.037 60.3494C222.037 61.7637 222.829 62.902 224.156 63.4367C225.641 64.0209 227.157 64.5728 228.628 65.108L228.775 65.1614C229.205 65.3167 229.632 65.4719 230.058 65.6271C230.485 65.7824 230.911 65.9376 231.342 66.0928L232.066 66.3688C232.812 66.647 233.559 66.9253 234.307 67.2037L234.319 67.2083C237.088 68.2399 239.865 69.274 242.629 70.3185C243.319 70.5772 243.939 70.7842 244.525 70.9221C245.128 71.0774 245.765 71.1636 246.369 71.1636L246.696 71.1636C246.77 71.1636 246.831 71.151 246.901 71.1366L246.937 71.1291L246.972 71.1291C247.782 71.0774 248.557 70.9221 249.298 70.5944C250.888 69.8918 252.479 69.1534 254.039 68.4288C254.356 68.2818 254.671 68.1354 254.985 67.99L255.123 67.9211C255.74 67.6383 256.354 67.3523 256.968 67.0658C257.779 66.6884 258.59 66.3102 259.413 65.9376C259.723 65.7996 259.999 65.6099 260.24 65.3857L260.533 65.2477C262.257 64.4543 263.359 62.7123 263.359 60.7978L263.359 49.4144C263.359 47.8966 262.825 46.4133 261.86 45.2578ZM239.855 49.7421L239.855 47.5172L244.904 53.5538C245.559 54.33 245.972 55.2958 246.11 56.2962L241.509 54.6232C240.355 54.2092 239.803 53.4159 239.855 52.2603C239.881 51.8191 239.877 51.3682 239.874 50.9295C239.873 50.7852 239.872 50.6419 239.872 50.501C239.855 50.2595 239.855 50.0008 239.855 49.7421ZM234.084 65.3675C237.126 66.501 240.177 67.6379 243.215 68.8007C244.025 69.1111 244.714 69.3181 245.352 69.4388C245.852 69.1284 246.145 68.611 246.145 68.0245L246.127 58.0554L245.783 57.9002C244.981 57.607 244.176 57.3138 243.37 57.0206C242.565 56.7274 241.759 56.4342 240.958 56.141C239.131 55.4856 238.132 54.0368 238.235 52.174C238.261 51.7587 238.258 51.3337 238.254 50.9209C238.253 50.7851 238.252 50.6506 238.252 50.5183L238.252 45.5337L236.271 43.1708C235.65 42.4292 234.806 41.9807 233.875 41.8772L231.239 43.0673C229.36 43.9297 227.482 44.7748 225.587 45.6027C223.898 46.3271 223.691 47.2585 223.691 47.8966C223.639 52.2258 223.657 56.5204 223.691 60.3321C223.691 61.0738 224.087 61.6257 224.777 61.9017C226.276 62.4881 227.81 63.0572 229.309 63.5919C229.5 63.6619 229.69 63.7311 229.878 63.7998C230.573 64.053 231.25 64.3 231.928 64.5578L232.652 64.8337C233.129 65.0116 233.606 65.1895 234.084 65.3675Z" fill="white"/>
</svg>
