<svg width="56" height="56" viewBox="0 0 56 56" fill="none" xmlns="http://www.w3.org/2000/svg">
<path fill-rule="evenodd" clip-rule="evenodd" d="M28 56C43.464 56 56 43.464 56 28C56 12.536 43.464 0 28 0C12.536 0 0 12.536 0 28C0 43.464 12.536 56 28 56Z" fill="#FF4F12"/>
<path d="M27.375 14.25H28.625V42.675H27.375V14.25Z" fill="white"/>
<path fill-rule="evenodd" clip-rule="evenodd" d="M13 28C13 19.7125 19.7125 13 28 13C36.2875 13 43 19.7125 43 28C43 36.2875 36.2875 43 28 43C19.7125 43 13 36.2875 13 28ZM41.75 28C41.75 20.4125 35.5875 14.25 28 14.25C20.4125 14.25 14.25 20.4125 14.25 28C14.25 35.5875 20.4125 41.75 28 41.75C35.5875 41.75 41.75 35.5875 41.75 28Z" fill="white"/>
<path fill-rule="evenodd" clip-rule="evenodd" d="M19.25 28C19.25 19.7125 23.1625 13 28 13C32.8375 13 36.75 19.7125 36.75 28C36.75 36.2875 32.8375 43 28 43C23.1625 43 19.25 36.2875 19.25 28ZM35.5 28C35.5 20.55 32.0625 14.25 28 14.25C23.9375 14.25 20.5 20.55 20.5 28C20.5 35.45 23.9375 41.75 28 41.75C32.0625 41.75 35.5 35.45 35.5 28Z" fill="white"/>
<path d="M15.3625 33.6875H40.625V34.9375H15.3625V33.6875Z" fill="white"/>
<path d="M15.3625 21.0625H40.625V22.3125H15.3625V21.0625Z" fill="white"/>
<path d="M13.7875 27.375H42.2125V28.625H13.7875V27.375Z" fill="white"/>
</svg>
