<svg width="56" height="56" viewBox="0 0 56 56" fill="none" xmlns="http://www.w3.org/2000/svg">
<path fill-rule="evenodd" clip-rule="evenodd" d="M28 56C43.464 56 56 43.464 56 28C56 12.536 43.464 0 28 0C12.536 0 0 12.536 0 28C0 43.464 12.536 56 28 56Z" fill="#FF4F12"/>
<path fill-rule="evenodd" clip-rule="evenodd" d="M14.275 19.25H41.725C42.425 19.25 43 19.825 43 20.525V34.25C43 34.95 42.425 35.525 41.725 35.525H14.275C13.575 35.525 13 34.95 13 34.25V20.525C13 19.825 13.575 19.25 14.275 19.25ZM41.75 20.525L41.725 20.5H14.275L14.25 34.25L41.725 34.275L41.75 20.525Z" fill="white"/>
<path d="M27.975 35.4375C22.5875 35.4375 18.55 36.2625 16.75 36.7125V38C18.2875 37.6 22.425 36.6875 27.975 36.6875C33.575 36.6875 37.7375 37.6125 39.25 38.0125V36.725C37.4625 36.2625 33.4125 35.4375 27.975 35.4375Z" fill="white"/>
</svg>
