<svg width="56" height="56" viewBox="0 0 56 56" fill="none" xmlns="http://www.w3.org/2000/svg">
<path fill-rule="evenodd" clip-rule="evenodd" d="M28 56C43.464 56 56 43.464 56 28C56 12.536 43.464 0 28 0C12.536 0 0 12.536 0 28C0 43.464 12.536 56 28 56Z" fill="#FF4F12"/>
<path fill-rule="evenodd" clip-rule="evenodd" d="M19.3125 13H36.6875C37.4125 13 38 13.5875 38 14.3125V41.6875C38 42.4125 37.4125 43 36.6875 43H19.3125C18.5875 43 18 42.4125 18 41.6875V14.3125C18 13.5875 18.5875 13 19.3125 13ZM36.75 14.3125C36.75 14.275 36.725 14.25 36.6875 14.25H19.3125C19.275 14.25 19.25 14.275 19.25 14.3125V41.6875C19.25 41.725 19.275 41.75 19.3125 41.75H36.6875C36.725 41.75 36.75 41.725 36.75 41.6875V14.3125Z" fill="white"/>
<path d="M28 40.5C28.3375 40.5 28.625 40.225 28.625 39.875C28.625 39.525 28.3375 39.25 28 39.25C27.6625 39.25 27.375 39.525 27.375 39.875C27.375 40.225 27.6625 40.5 28 40.5Z" fill="white"/>
<path d="M18 36.75H38V38H18V36.75Z" fill="white"/>
</svg>
