<svg width="165" height="47" viewBox="0 0 165 47" fill="none" xmlns="http://www.w3.org/2000/svg">
<g clip-path="url(#clip0_168_10863)">
<path d="M9.35887 46.9811C8.9853 46.9811 8.61173 46.9811 8.23817 46.9619C7.55002 46.9426 6.72427 46.9041 5.91807 46.7693C5.17093 46.6346 4.48277 46.4228 3.87327 46.1147C3.22444 45.7874 2.65427 45.383 2.14307 44.8824C1.63187 44.3818 1.21898 43.8234 0.884772 43.188C0.570192 42.5719 0.353912 41.9172 0.216282 41.1856C0.058992 40.3769 0.019662 39.5489 0.019662 38.9136C0.019662 38.6632 0 37.816 0 37.816V9.16602C0 9.16602 0.019662 8.31882 0.019662 8.08782C0.039324 7.45242 0.078647 6.62452 0.216282 5.81582C0.353912 5.0649 0.570192 4.41022 0.884772 3.79412C1.21902 3.15872 1.63191 2.58112 2.14307 2.09972C2.65427 1.59911 3.24407 1.17551 3.87327 0.867421C4.50244 0.559351 5.17097 0.328301 5.91807 0.212771C6.74385 0.0587406 7.58927 0.0394806 8.23817 0.0202306L9.35887 0.000976562H155.639L156.76 0.0202306C157.389 0.0394846 158.234 0.0779936 159.06 0.212771C159.807 0.347551 160.476 0.559351 161.125 0.867421C161.754 1.19474 162.344 1.59909 162.855 2.09972C163.366 2.60035 163.779 3.15872 164.113 3.79412C164.428 4.41026 164.644 5.06492 164.782 5.79662C164.919 6.56679 164.978 7.35622 164.998 8.08792V9.16612V10.4947V36.4877V37.797V38.933C164.978 39.6454 164.919 40.4348 164.782 41.1858C164.644 41.9367 164.428 42.5913 164.113 43.2075C163.779 43.8429 163.346 44.4013 162.855 44.8826C162.344 45.3832 161.754 45.8068 161.125 46.1149C160.476 46.4422 159.827 46.654 159.06 46.7888C158.274 46.9236 157.448 46.9621 156.74 46.9813C156.386 46.9813 155.993 47.0006 155.639 47.0006H154.302L9.35187 46.9813L9.35887 46.9811Z" fill="black"/>
<path d="M60.912 32.1161H55.1118L53.6962 35.9092H51.1401L56.8223 21.7192H59.2407L65.0606 35.9092H62.3866L60.912 32.1161ZM55.8393 30.1907H60.1648L58.6116 26.128C58.3953 25.5696 58.179 24.9535 57.9824 24.2603C57.7858 24.8572 57.5891 25.4733 57.3729 26.1087L55.8393 30.1907Z" fill="white"/>
<path d="M66.2 27.9381C66.2 27.1487 66.1803 26.3015 66.1213 25.358H68.4414C68.52 25.8009 68.579 26.2438 68.6183 26.7059C69.5818 25.6854 70.6828 25.1655 71.9215 25.1655C72.649 25.1655 73.3174 25.3388 73.927 25.7046C74.5365 26.0512 75.028 26.6288 75.4212 27.399C75.7948 28.1692 75.9914 29.1512 75.9914 30.3257C75.9914 31.558 75.7751 32.617 75.3426 33.4834C74.91 34.3499 74.3202 35.0238 73.5337 35.4666C72.7669 35.9095 71.8625 36.1405 70.8598 36.1405C70.1323 36.1405 69.4048 36.025 68.697 35.7747V40.1262L66.2196 40.338V27.938L66.2 27.9381ZM72.6883 33.3486C73.1995 32.694 73.4354 31.712 73.4354 30.4412C73.4354 29.2667 73.2191 28.4002 72.8062 27.8611C72.3934 27.322 71.8428 27.0717 71.135 27.0717C70.6631 27.0717 70.2109 27.1872 69.798 27.399C69.3851 27.6301 69.0116 27.9189 68.638 28.2847V33.9455C68.8936 34.061 69.1689 34.1573 69.5031 34.2343C69.8374 34.3113 70.1519 34.3306 70.4665 34.3306C71.4496 34.3306 72.1967 34.0033 72.6883 33.3486Z" fill="white"/>
<path d="M77.5449 27.9381C77.5449 27.1487 77.5252 26.3015 77.4663 25.358H79.7863C79.865 25.8009 79.9239 26.2438 79.9633 26.7059C80.9267 25.6854 82.0277 25.1655 83.2664 25.1655C83.9939 25.1655 84.6624 25.3388 85.2719 25.7046C85.8814 26.0512 86.3729 26.6288 86.7662 27.399C87.1397 28.1692 87.3363 29.1512 87.3363 30.3257C87.3363 31.558 87.1201 32.617 86.6875 33.4834C86.255 34.3499 85.6651 35.0238 84.8786 35.4666C84.1118 35.9095 83.2074 36.1405 82.2047 36.1405C81.4772 36.1405 80.7497 36.025 80.0419 35.7747V40.1262L77.5646 40.338V27.938L77.5449 27.9381ZM84.0529 33.3486C84.5641 32.694 84.8 31.712 84.8 30.4412C84.8 29.2667 84.5837 28.4002 84.1708 27.8611C83.7579 27.322 83.2074 27.0717 82.4996 27.0717C82.0277 27.0717 81.5755 27.1872 81.1626 27.399C80.7497 27.6301 80.3762 27.9189 80.0026 28.2847V33.9455C80.2582 34.061 80.5334 34.1573 80.8677 34.2343C81.2019 34.3113 81.5165 34.3306 81.8311 34.3306C82.8142 34.3306 83.5417 34.0033 84.0529 33.3486Z" fill="white"/>
<path d="M91.9771 35.255C90.9153 34.6774 90.0896 33.8495 89.5194 32.7712C88.9492 31.693 88.6543 30.4222 88.6543 28.9588C88.6543 27.3607 88.9885 26.0129 89.6373 24.8962C90.3058 23.7794 91.1906 22.9515 92.331 22.3931C93.4714 21.8347 94.7494 21.5459 96.165 21.5459C96.9908 21.5459 97.7969 21.6422 98.544 21.8155C99.3109 21.9887 99.999 22.2391 100.667 22.5471L100.038 24.4148C98.721 23.7987 97.4627 23.4906 96.283 23.4906C95.2802 23.4906 94.3954 23.7024 93.6286 24.126C92.8618 24.5496 92.2917 25.1657 91.8591 25.9744C91.4462 26.7831 91.2299 27.7843 91.2299 28.9396C91.2299 29.9601 91.3872 30.8458 91.7215 31.6352C92.0557 32.4246 92.5473 33.0408 93.2551 33.5029C93.9432 33.965 94.828 34.196 95.8897 34.196C96.3616 34.196 96.8532 34.1575 97.325 34.0805C97.7969 34.0035 98.2491 33.888 98.6817 33.7339V30.865H95.3392V28.9588H101.1V34.9277C100.274 35.3128 99.4092 35.6016 98.4851 35.7942C97.5806 36.006 96.6762 36.1022 95.7718 36.1022C94.3168 36.1215 93.0585 35.8327 91.9771 35.255Z" fill="white"/>
<path d="M109.99 35.9291C109.911 35.5248 109.852 35.0434 109.813 34.5235C109.439 34.9664 108.928 35.3515 108.319 35.6596C107.709 35.9676 107.021 36.1217 106.254 36.1217C105.625 36.1217 105.074 36.0061 104.563 35.7558C104.052 35.5248 103.639 35.1589 103.344 34.6776C103.049 34.1962 102.892 33.6186 102.892 32.9254C102.892 31.9049 103.265 31.077 104.032 30.4801C104.779 29.864 106.038 29.5559 107.807 29.5559C108.476 29.5559 109.125 29.5944 109.773 29.6907V29.4789C109.773 28.5354 109.577 27.8808 109.164 27.4957C108.751 27.1106 108.181 26.918 107.414 26.918C106.883 26.918 106.333 26.9951 105.723 27.1491C105.114 27.3031 104.602 27.4764 104.15 27.6882L103.757 25.9168C104.19 25.7243 104.779 25.5317 105.507 25.3777C106.234 25.2237 106.982 25.1274 107.788 25.1274C108.712 25.1274 109.518 25.2622 110.167 25.551C110.816 25.8206 111.327 26.3019 111.7 26.9758C112.074 27.6497 112.251 28.5547 112.251 29.7099V33.9074C112.251 34.3503 112.27 35.0049 112.329 35.8906H109.99V35.9291ZM108.515 33.9652C109.026 33.7149 109.459 33.426 109.773 33.0602V31.0963C109.105 31.0192 108.554 30.9807 108.122 30.9807C107.099 30.9807 106.392 31.1348 105.998 31.4621C105.605 31.7894 105.409 32.213 105.409 32.7714C105.409 33.2913 105.546 33.6763 105.841 33.9267C106.116 34.177 106.51 34.3117 107.001 34.3117C107.493 34.331 108.004 34.1962 108.515 33.9652Z" fill="white"/>
<path d="M114.39 33.3868V20.8908L116.848 20.6982V32.9632C116.848 33.406 116.926 33.7334 117.084 33.9259C117.241 34.1184 117.497 34.2147 117.831 34.2147C117.988 34.2147 118.204 34.1762 118.48 34.0992L118.775 35.8321C118.539 35.9284 118.263 36.0054 117.91 36.0439C117.575 36.1016 117.261 36.1209 116.946 36.1209C115.255 36.1209 114.39 35.2159 114.39 33.3868Z" fill="white"/>
<path d="M120.54 33.3868V20.8908L122.998 20.6982V32.9632C122.998 33.406 123.077 33.7334 123.234 33.9259C123.391 34.1184 123.647 34.2147 123.981 34.2147C124.138 34.2147 124.355 34.1762 124.63 34.0992L124.925 35.8321C124.689 35.9284 124.413 36.0054 124.06 36.0439C123.725 36.1016 123.411 36.1209 123.096 36.1209C121.405 36.1209 120.54 35.2159 120.54 33.3868Z" fill="white"/>
<path d="M135.17 30.9421H128.112C128.23 33.1564 129.311 34.2539 131.336 34.2539C131.847 34.2539 132.359 34.1961 132.889 34.0806C133.42 33.965 133.932 33.7917 134.423 33.5992L134.954 35.2551C133.755 35.8327 132.398 36.1215 130.884 36.1215C129.744 36.1215 128.761 35.9097 127.974 35.4861C127.188 35.0625 126.598 34.4464 126.205 33.657C125.811 32.8675 125.615 31.9048 125.615 30.7688C125.615 29.5943 125.831 28.5931 126.244 27.7459C126.657 26.8987 127.247 26.2633 127.994 25.8204C128.741 25.3776 129.606 25.1465 130.589 25.1465C131.611 25.1465 132.457 25.3776 133.145 25.8397C133.833 26.3018 134.344 26.9372 134.659 27.7074C134.993 28.4775 135.151 29.344 135.151 30.2874V30.9421H135.17ZM132.752 29.4017C132.712 28.5545 132.496 27.9192 132.103 27.5148C131.71 27.0912 131.199 26.8794 130.55 26.8794C129.921 26.8794 129.409 27.0912 128.977 27.5148C128.564 27.9384 128.289 28.5738 128.171 29.4017H132.752Z" fill="white"/>
<path d="M137.16 28.0152C137.16 27.4375 137.14 26.5518 137.081 25.358H139.401C139.441 25.6469 139.48 26.0127 139.519 26.417C139.559 26.8214 139.578 27.1487 139.598 27.4183C139.893 26.9562 140.168 26.5711 140.443 26.2438C140.719 25.9164 141.053 25.6661 141.407 25.4736C141.78 25.281 142.193 25.1655 142.665 25.1655C143.039 25.1655 143.373 25.204 143.648 25.281L143.334 27.3798C143.098 27.3027 142.823 27.2642 142.528 27.2642C141.938 27.2642 141.446 27.4183 141.014 27.7071C140.581 27.9959 140.109 28.4773 139.618 29.1512V35.948H137.16V28.0152Z" fill="white"/>
<path d="M145.12 40.2418C144.766 40.1841 144.471 40.1071 144.235 40.03L144.688 38.2586C144.845 38.2971 145.061 38.3549 145.317 38.3934C145.572 38.4319 145.808 38.4512 146.044 38.4512C147.145 38.4512 147.951 37.758 148.502 36.391L148.659 36.0059L144.688 25.3389H147.342L149.347 31.2885C149.682 32.309 149.878 33.0792 149.976 33.6376C150.173 32.8674 150.389 32.1165 150.645 31.3463L152.67 25.3389H155.167L151.195 36.0449C150.822 37.0654 150.409 37.874 149.976 38.4902C149.544 39.1063 149.033 39.5684 148.443 39.8765C147.853 40.1846 147.145 40.3194 146.3 40.3194C145.867 40.3386 145.494 40.3189 145.12 40.2418Z" fill="white"/>
<path fill-rule="evenodd" clip-rule="evenodd" d="M32.795 7.85547H18.835C12.268 7.85547 9.84961 10.2045 9.84961 16.6548V30.3258C9.84961 36.7568 12.2484 39.1251 18.835 39.1251H32.795C39.362 39.1251 41.7804 36.776 41.7804 30.3258V16.6548C41.7607 10.2045 39.362 7.85547 32.795 7.85547Z" fill="#CE0E2D"/>
<path d="M16.1811 23.4899H17.0266V27.5719H16.1811V25.916H14.274V27.5719H13.4285V23.4899H14.274V25.1458H16.1811V23.4899ZM20.9392 25.8197C20.9392 26.4744 20.605 26.8402 19.9955 26.8402C19.386 26.8402 19.0321 26.4744 19.0321 25.8005V23.4899H18.1866V25.8197C18.1866 26.975 18.8354 27.6296 19.9758 27.6296C21.1162 27.6296 21.7847 26.9557 21.7847 25.7812V23.4707H20.9392V25.8197ZM30.7307 26.3011L29.7869 23.4899H29.0988L28.155 26.3011L27.2309 23.4899H26.3265L27.7815 27.5719H28.4893L29.433 24.8955L30.3768 27.5719H31.0846L32.5396 23.4899H31.6548L30.7307 26.3011ZM34.0338 25.8197H35.5674V25.0688H34.0338V24.2408H36.2753V23.4899H33.2081V27.5719H36.3539V26.8209H34.0338V25.8197ZM37.3763 27.5719H38.2021V23.4899H37.3763V27.5719ZM23.4563 26.7247L23.0827 27.5719H22.2176L24.0462 23.4899H24.7933L26.6218 27.5719H25.7371L25.3635 26.7247H23.4563ZM23.7709 25.9737H25.0489L24.4001 24.5104L23.7709 25.9737Z" fill="white"/>
<path d="M25.816 18.292C22.8864 18.292 20.5073 15.9622 20.5073 13.0933H21.2545C21.2545 15.5579 23.2993 17.5603 25.816 17.5603C28.3327 17.5603 30.3775 15.5579 30.3775 13.0933H31.1246C31.1246 15.9429 28.7455 18.292 25.816 18.292Z" fill="white"/>
<path d="M51.8051 15.6241C51.2813 15.3478 50.8932 14.9424 50.6216 14.445C50.3499 13.9475 50.2141 13.3395 50.2141 12.6763C50.2141 11.9761 50.3499 11.3497 50.641 10.8154C50.932 10.2811 51.3589 9.87576 51.9021 9.58098C52.4454 9.2862 53.0857 9.15723 53.8424 9.15723C54.5603 9.15723 55.1618 9.30462 55.6857 9.58098C56.1901 9.85735 56.5976 10.2443 56.8692 10.7601C57.1409 11.2576 57.2767 11.8472 57.2767 12.5104C57.2767 13.229 57.1214 13.8554 56.8304 14.3897C56.5394 14.924 56.1125 15.3293 55.5692 15.6241C55.026 15.9189 54.3857 16.0479 53.6484 16.0479C52.9305 16.0479 52.329 15.9189 51.8051 15.6241ZM54.9678 14.8135C55.317 14.5924 55.5692 14.2976 55.7245 13.9107C55.8991 13.5238 55.9767 13.1 55.9767 12.6026C55.9767 12.1235 55.8991 11.6998 55.7439 11.3129C55.5886 10.926 55.3558 10.6312 55.026 10.4101C54.6961 10.189 54.2693 10.0784 53.7648 10.0784C53.2797 10.0784 52.8529 10.189 52.5036 10.4101C52.1544 10.6312 51.9021 10.9444 51.7275 11.3129C51.5529 11.6998 51.4753 12.1051 51.4753 12.5657C51.4753 13.0447 51.5529 13.4869 51.7275 13.8738C51.8827 14.2607 52.135 14.5555 52.4648 14.7766C52.7947 14.9977 53.2215 15.1082 53.7066 15.1082C54.2111 15.1267 54.6185 15.0345 54.9678 14.8135Z" fill="white"/>
<path d="M59.7411 10.2252H57.5486L57.6651 9.26709H63.1366L63.0202 10.2252H60.9441V15.9551H59.7217V10.2252H59.7411Z" fill="white"/>
<path d="M69.694 15.9549H68.3164L66.2209 13.007H65.3866V15.9549H64.1643V9.26694H65.3866V12.0305H66.0269L67.4821 10.0223C67.6955 9.72753 67.909 9.50644 68.1224 9.37747C68.3358 9.2485 68.6075 9.1748 68.9373 9.1748C69.2089 9.1748 69.4612 9.21165 69.6746 9.30377L69.4224 10.2065C69.2866 10.1513 69.1701 10.1328 69.0343 10.1328C68.8985 10.1328 68.7627 10.1697 68.6657 10.2434C68.5687 10.3171 68.4522 10.4276 68.3552 10.575L67.0553 12.3253L69.694 15.9549Z" fill="white"/>
<path d="M70.626 9.26711H72.5275C73.42 9.26711 74.0991 9.43293 74.5842 9.78299C75.0692 10.1331 75.3021 10.6305 75.3021 11.2754C75.3021 11.7175 75.2051 12.1045 74.9916 12.4361C74.7782 12.7677 74.4872 13.0257 74.0991 13.1915C73.711 13.3757 73.2842 13.4494 72.7797 13.4494C72.5081 13.4494 72.1976 13.4126 71.8484 13.3573V15.9367H70.626V9.26711ZM73.6916 12.2518C73.9439 12.0308 74.0797 11.7175 74.0797 11.3122C74.0797 10.9069 73.9439 10.5937 73.6916 10.4279C73.42 10.2436 73.032 10.1515 72.5275 10.1515H71.8678V12.5282C72.1782 12.5835 72.4111 12.6019 72.5663 12.6019C73.0514 12.5835 73.42 12.4729 73.6916 12.2518Z" fill="white"/>
<path d="M77.6301 15.6241C77.1062 15.3478 76.7182 14.9424 76.4465 14.445C76.1749 13.9475 76.0391 13.3395 76.0391 12.6763C76.0391 11.9761 76.1749 11.3497 76.4659 10.8154C76.757 10.2811 77.1838 9.87576 77.7271 9.58098C78.2704 9.2862 78.9106 9.15723 79.6673 9.15723C80.3852 9.15723 80.9867 9.30462 81.5106 9.58098C82.0151 9.85735 82.4225 10.2443 82.6941 10.7601C82.9658 11.2576 83.1016 11.8472 83.1016 12.5104C83.1016 13.229 82.9464 13.8554 82.6553 14.3897C82.3643 14.924 81.9374 15.3293 81.3942 15.6241C80.8509 15.9189 80.2106 16.0479 79.4733 16.0479C78.7748 16.0479 78.1539 15.9189 77.6301 15.6241ZM80.7927 14.8135C81.1419 14.5924 81.3942 14.2976 81.5494 13.9107C81.724 13.5238 81.8016 13.1 81.8016 12.6026C81.8016 12.1235 81.724 11.6998 81.5688 11.3129C81.4136 10.9444 81.1807 10.6312 80.8509 10.4101C80.5211 10.189 80.0942 10.0784 79.5897 10.0784C79.1047 10.0784 78.6778 10.189 78.3286 10.4101C77.9793 10.6312 77.7271 10.9444 77.5525 11.3129C77.3778 11.6998 77.3002 12.1051 77.3002 12.5657C77.3002 13.0447 77.3778 13.4869 77.5525 13.8738C77.7077 14.2607 77.9599 14.5555 78.2898 14.7766C78.6196 14.9977 79.0465 15.1082 79.5315 15.1082C80.036 15.1267 80.4628 15.0345 80.7927 14.8135Z" fill="white"/>
<path d="M89.2909 15.9549V12.2701C89.2909 11.8095 89.3103 11.2752 89.3491 10.6856L85.7984 15.9549H84.4402V9.26692H85.5656V13.0991C85.5656 13.5229 85.5462 13.9651 85.5268 14.4625L89.0192 9.26692H90.4162V15.9733H89.2909V15.9549ZM86.5357 8.67732C86.2835 8.54835 86.0894 8.38253 85.9536 8.17987C85.8178 7.9772 85.7402 7.75611 85.7014 7.5166H86.5745C86.6715 8.01405 86.982 8.25356 87.4864 8.25356C88.0103 8.25356 88.3013 8.01405 88.3984 7.5166H89.2715C89.2327 7.75611 89.155 7.9772 89.0192 8.17987C88.8834 8.38253 88.6894 8.54835 88.4372 8.67732C88.1849 8.80629 87.8551 8.87999 87.4864 8.87999C87.1178 8.86156 86.8073 8.80629 86.5357 8.67732Z" fill="white"/>
<path d="M93.637 10.2252H91.4639L91.5803 9.26709H97.0713L96.9549 10.2252H94.8788V15.9551H93.6564V10.2252H93.637Z" fill="white"/>
<path d="M98.0801 9.26712H102.232L102.135 10.2068H99.3219V12.0492H101.98V12.9335H99.3219V14.997H102.291L102.194 15.9551H98.0995V9.26709L98.0801 9.26712Z" fill="white"/>
<path d="M110.77 12.6388C111.022 12.7861 111.216 12.9704 111.371 13.2099C111.526 13.4494 111.585 13.7258 111.585 14.0574C111.585 14.4259 111.488 14.7575 111.294 15.0523C111.099 15.3287 110.808 15.5682 110.44 15.7156C110.052 15.8814 109.605 15.9551 109.082 15.9551H106.773V9.26709H108.985C109.741 9.26709 110.285 9.39606 110.673 9.67242C111.041 9.94879 111.235 10.3173 111.235 10.7962C111.235 11.2016 111.119 11.5332 110.886 11.7911C110.653 12.0491 110.343 12.2517 109.955 12.3623C110.226 12.3991 110.517 12.5098 110.77 12.6388ZM107.956 11.9939H108.713C108.965 11.9939 109.198 11.9386 109.392 11.8465C109.586 11.7544 109.741 11.6254 109.838 11.4596C109.935 11.2938 109.994 11.128 109.994 10.9253C109.994 10.6489 109.897 10.4463 109.683 10.3173C109.47 10.1883 109.179 10.1146 108.771 10.1146H107.956V11.9939ZM109.994 14.8128C110.246 14.6286 110.362 14.3522 110.362 14.0021C110.362 13.6337 110.226 13.3389 109.955 13.1546C109.683 12.9704 109.276 12.8598 108.771 12.8598H107.956V15.1076H108.868C109.373 15.1076 109.741 14.997 109.994 14.8128Z" fill="white"/>
</g>
<defs>
<clipPath id="clip0_168_10863">
<rect width="165" height="47" fill="white"/>
</clipPath>
</defs>
</svg>
