<svg width="56" height="56" viewBox="0 0 56 56" fill="none" xmlns="http://www.w3.org/2000/svg">
<path fill-rule="evenodd" clip-rule="evenodd" d="M28 56C43.464 56 56 43.464 56 28C56 12.536 43.464 0 28 0C12.536 0 0 12.536 0 28C0 43.464 12.536 56 28 56Z" fill="#FF4F12"/>
<path fill-rule="evenodd" clip-rule="evenodd" d="M42.4548 19.67C42.3323 19.5475 42.0873 19.425 41.9648 19.425H40.2498V19.18C40.2498 18.8125 40.0048 18.5675 39.6373 18.445C39.2698 18.3225 36.2073 17.8325 33.2673 18.3225C30.8173 18.69 28.7348 19.7925 27.8773 20.2825C27.0198 19.7925 25.0598 18.8125 22.4873 18.3225C19.5473 17.8325 16.4848 18.3225 16.1173 18.445C15.9948 18.5675 15.7498 18.8125 15.7498 19.18V19.425H14.0348C13.7898 19.425 13.6673 19.425 13.5448 19.67C13.4223 19.7925 13.2998 20.0375 13.2998 20.16V38.1675C13.2998 38.4125 13.4223 38.6575 13.6673 38.9025C13.7286 38.9025 13.7898 38.9331 13.8511 38.9638C13.9123 38.9944 13.9736 39.025 14.0348 39.025C14.1573 39.025 14.2798 39.025 14.4023 38.9025C14.4023 38.9025 16.7298 37.555 19.9148 37.31C23.4673 37.065 27.7548 38.1675 27.7548 38.1675H27.9998C27.9998 38.1675 32.2873 36.9425 35.8398 37.31C38.4638 37.5119 40.4226 38.462 41.0998 38.7905C41.2445 38.8607 41.3307 38.9025 41.3523 38.9025C41.4748 39.025 41.5973 39.025 41.7198 39.025C41.8423 39.025 41.9648 39.025 42.0873 38.9025C42.3323 38.78 42.4548 38.535 42.4548 38.1675V20.16C42.6998 20.0375 42.5773 19.7925 42.4548 19.67ZM16.9748 19.5475C17.9548 19.425 20.4048 19.18 22.3648 19.5475C24.428 19.8914 26.3839 20.8787 27.229 21.3053C27.2869 21.3346 27.3402 21.3614 27.3873 21.385V35.84C26.1623 35.2275 24.4473 34.615 22.3648 34.2475C21.3848 34.125 20.5273 34.125 19.5473 34.125C18.5673 34.125 17.5873 34.2475 16.9748 34.37V19.5475ZM14.5248 37.555C15.5048 37.065 17.5873 36.2075 19.6698 36.085C20.6498 35.9625 23.2223 35.9625 25.6723 36.33C25.6723 36.33 23.2223 35.4725 20.4048 35.35C18.5673 35.2275 16.6073 35.595 16.6073 35.595C16.3623 35.595 16.1173 35.595 15.9948 35.4725C15.8723 35.35 15.7498 35.2275 15.7498 34.9825V20.65H14.5248V37.555ZM28.6123 21.385C28.6871 21.3476 28.7746 21.3026 28.8739 21.2515C29.7502 20.8007 31.5442 19.8776 33.6348 19.5475C35.7173 19.18 38.0448 19.425 39.0248 19.5475V34.37C38.4123 34.2475 37.4323 34.125 36.4523 34.125C35.5713 34.125 34.7893 34.224 33.9283 34.333C33.8315 34.3453 33.7338 34.3576 33.6348 34.37C31.5523 34.615 29.7148 35.35 28.6123 35.9625V21.385ZM36.3298 36.085C38.4123 36.33 40.3723 37.065 41.4748 37.555L41.5973 20.65H40.3723V35.105C40.3723 35.2275 40.2498 35.4725 40.1273 35.595C39.8823 35.7175 39.7598 35.7175 39.5148 35.7175C39.5148 35.7175 37.4323 35.35 35.7173 35.4725C32.8998 35.595 30.4498 36.4525 30.4498 36.4525C32.8998 35.9625 35.3498 35.9625 36.3298 36.085Z" fill="white"/>
</svg>
