<svg width="56" height="56" viewBox="0 0 56 56" fill="none" xmlns="http://www.w3.org/2000/svg">
<path fill-rule="evenodd" clip-rule="evenodd" d="M28 56C43.464 56 56 43.464 56 28C56 12.536 43.464 0 28 0C12.536 0 0 12.536 0 28C0 43.464 12.536 56 28 56Z" fill="#FF4F12"/>
<path fill-rule="evenodd" clip-rule="evenodd" d="M41.4748 19.425H36.5626C36.5626 17.7958 36.3788 16.3993 36.1828 15.3458C36.0358 14.5863 35.4111 14.1085 34.7373 14.1085C34.4801 14.1085 34.2106 14.182 33.9656 14.3413L30.1436 16.8158C29.9231 16.5585 29.6046 16.3748 29.2248 16.3748H26.7748C26.3951 16.3748 26.0766 16.5463 25.8561 16.8158L22.0341 14.3413C21.7891 14.182 21.5196 14.1085 21.2623 14.1085C20.6008 14.1085 19.9638 14.5863 19.8168 15.3458C19.6086 16.3993 19.4371 17.7958 19.4371 19.425H14.5248C13.8511 19.425 13.2998 19.9763 13.2998 20.65V24.325C13.2998 24.9988 13.8511 25.55 14.5248 25.55V40.25C14.5248 40.9238 15.0761 41.475 15.7498 41.475H25.5498H30.4498H40.2498C40.9236 41.475 41.4748 40.9238 41.4748 40.25V25.55C42.1486 25.55 42.6998 24.9988 42.6998 24.325V20.65C42.6998 19.9763 42.1486 19.425 41.4748 19.425ZM25.5498 40.25H15.7498V25.55H25.5498V40.25ZM25.5498 22.365V20.9073V20.65H20.6866H19.4616H18.1998H14.5248V24.325H15.7498H18.1998H20.1598H22.5363H25.5498V22.365ZM25.5498 19.425H20.6498C20.6498 17.8938 20.8213 16.583 21.0173 15.5785C21.0541 15.3825 21.1888 15.3213 21.2623 15.3213C21.2991 15.3213 21.3358 15.3335 21.3726 15.358L25.5498 18.0775V19.425ZM29.2248 22.61V21.385V20.65H26.7748V21.385V22.61V24.325V25.55V26.775V40.25H29.2248V26.775V25.55V24.325V22.61ZM29.2248 19.425H26.7748V17.5998H29.2248V19.425ZM34.6393 15.358L30.4498 18.0775V19.425H35.3498C35.3376 17.8938 35.1783 16.583 34.9946 15.5785C34.9456 15.3703 34.8108 15.3213 34.7496 15.3213C34.7128 15.3213 34.6761 15.3335 34.6393 15.358ZM30.4498 40.25V25.55H40.2498V40.25H30.4498ZM40.2498 24.325H41.4748V20.65H37.7998H36.5381H35.3131H30.4498V20.9073V22.365V24.325H33.4633H35.8398H37.7998H40.2498Z" fill="white"/>
</svg>
