<svg width="48" height="48" viewBox="0 0 48 48" fill="none" xmlns="http://www.w3.org/2000/svg">
<rect width="48" height="48" rx="8" fill="#7700FF"/>
<g clip-path="url(#clip0_224_419)">
<path d="M15.783 40.9229C16.014 40.997 16.2452 40.9981 16.5 41.0001H29.3333L20.8333 32.3301C19.2654 33.9197 18.349 35.0298 17.5876 35.8041C16.9114 36.4918 16.4494 36.9641 16.0213 37.4071C15.482 37.9555 15.1229 38.3211 15.1213 38.3228C14.8569 38.6086 14.6956 39.0193 14.6956 39.4411C14.6956 40.1029 15.0932 40.6432 15.6579 40.8798C15.6784 40.8886 15.7563 40.9169 15.783 40.9229Z" fill="url(#paint0_linear_224_419)"/>
<path d="M15.783 40.9229C16.014 40.997 16.2452 40.9981 16.5 41.0001H29.3333L20.8333 32.3301C19.2654 33.9197 18.349 35.0298 17.5876 35.8041C16.9114 36.4918 16.4494 36.9641 16.0213 37.4071C15.482 37.9555 15.1229 38.3211 15.1213 38.3228C14.8569 38.6086 14.6956 39.0193 14.6956 39.4411C14.6956 40.1029 15.0932 40.6432 15.6579 40.8798C15.6784 40.8886 15.7563 40.9169 15.783 40.9229Z" fill="url(#paint1_linear_224_419)"/>
<path fill-rule="evenodd" clip-rule="evenodd" d="M15.12 38.3246C15.1226 38.3212 28.7175 24.6096 34 19.24L22.3333 7L15.7408 14.0883C13.7764 16.0923 14.0421 17.4035 14.0421 20.0948V38.5094C14.0421 39.5984 14.714 40.5214 15.6579 40.8796C15.0932 40.6433 14.6955 40.1027 14.6955 39.4408C14.6955 39.0194 14.8569 38.6087 15.12 38.3246Z" fill="white"/>
</g>
<defs>
<linearGradient id="paint0_linear_224_419" x1="746.585" y1="533.843" x2="591.263" y2="78.5521" gradientUnits="userSpaceOnUse">
<stop stop-color="white"/>
<stop offset="1" stop-color="white"/>
</linearGradient>
<linearGradient id="paint1_linear_224_419" x1="1115.77" y1="781.525" x2="42.9398" y2="-137.837" gradientUnits="userSpaceOnUse">
<stop stop-color="#FF4F12"/>
<stop offset="1" stop-color="#FF4F12"/>
</linearGradient>
<clipPath id="clip0_224_419">
<rect width="20" height="34" fill="white" transform="translate(14 7)"/>
</clipPath>
</defs>
</svg>
