<svg width="56" height="56" viewBox="0 0 56 56" fill="none" xmlns="http://www.w3.org/2000/svg">
<path fill-rule="evenodd" clip-rule="evenodd" d="M28 56C43.464 56 56 43.464 56 28C56 12.536 43.464 0 28 0C12.536 0 0 12.536 0 28C0 43.464 12.536 56 28 56Z" fill="#FF4F12"/>
<path fill-rule="evenodd" clip-rule="evenodd" d="M34.125 31.675C34.125 30.3275 35.2275 29.225 36.575 29.225C37.9225 29.225 39.025 30.3275 39.025 31.675C39.025 33.0225 37.9225 34.125 36.575 34.125C35.2275 34.125 34.125 33.0225 34.125 31.675ZM37.8 31.675C37.8 30.94 37.31 30.45 36.575 30.45C35.84 30.45 35.35 30.94 35.35 31.675C35.35 32.41 35.84 32.9 36.575 32.9C37.31 32.9 37.8 32.41 37.8 31.675Z" fill="white"/>
<path fill-rule="evenodd" clip-rule="evenodd" d="M26.7749 24.325C26.7749 22.9775 27.8774 21.875 29.2249 21.875C30.5724 21.875 31.6749 22.9775 31.6749 24.325C31.6749 25.6725 30.5724 26.775 29.2249 26.775C27.8774 26.775 26.7749 25.6725 26.7749 24.325ZM30.4499 24.325C30.4499 23.59 29.9599 23.1 29.2249 23.1C28.4899 23.1 27.9999 23.59 27.9999 24.325C27.9999 25.06 28.4899 25.55 29.2249 25.55C29.9599 25.55 30.4499 25.06 30.4499 24.325Z" fill="white"/>
<path d="M26.7417 33.2806L38.0889 21.9335L38.9551 22.7997L27.6079 34.1468L26.7417 33.2806Z" fill="white"/>
<path fill-rule="evenodd" clip-rule="evenodd" d="M18.5673 18.2001H41.4748C42.2098 18.2001 42.6998 18.6901 42.6998 19.4251V36.5751C42.6998 37.3101 42.2098 37.8001 41.4748 37.8001H18.5673C18.3223 37.8001 18.0773 37.6776 17.8323 37.5551L13.7898 34.4926C13.4223 34.2476 13.2998 33.8801 13.2998 33.5126V22.4876C13.2998 22.1201 13.4223 21.7526 13.7898 21.5076L17.8323 18.4451C18.0773 18.3226 18.3223 18.2001 18.5673 18.2001ZM41.4748 36.5751V19.4251H18.5673L14.5248 22.4876V33.5126L18.5673 36.5751H41.4748Z" fill="white"/>
<path fill-rule="evenodd" clip-rule="evenodd" d="M16.9751 28C16.9751 27.02 17.8326 26.1625 18.8126 26.1625C19.7926 26.1625 20.6501 27.02 20.6501 28C20.6501 28.98 19.7926 29.8375 18.8126 29.8375C17.8326 29.8375 16.9751 28.98 16.9751 28ZM19.4251 28C19.4251 27.6325 19.1801 27.3875 18.8126 27.3875C18.4451 27.3875 18.2001 27.6325 18.2001 28C18.2001 28.3675 18.4451 28.6125 18.8126 28.6125C19.1801 28.6125 19.4251 28.3675 19.4251 28Z" fill="white"/>
</svg>
