<svg width="524" height="467" viewBox="0 0 524 467" fill="none" xmlns="http://www.w3.org/2000/svg">
<g clip-path="url(#clip0_422_4480)">
<path fill-rule="evenodd" clip-rule="evenodd" d="M228.117 2.79022C267.805 -10.5269 301.513 38.7192 340.732 53.3617C377.661 67.1496 430.436 53.5545 452.169 86.4418C474.86 120.779 435.238 166.925 442.544 207.43C449.46 245.773 498.454 272.301 492.642 310.827C486.983 348.346 445.581 369.007 414.822 391.223C386.557 411.637 354.481 423.053 321.52 434.418C284.574 447.156 245.722 476.939 209.621 461.975C172.932 446.767 174.776 391.677 147.888 362.446C120.724 332.912 52.8197 331.847 53.0221 291.72C53.2482 246.884 125.259 238.687 148.705 200.469C164.386 174.91 151.402 140.964 162.58 113.139C178.804 72.7537 186.855 16.6354 228.117 2.79022Z" fill="#F9CA93"/>
<rect x="156.236" y="42.5006" width="224.218" height="415.562" rx="6.7434" fill="#4C3BBD"/>
<rect x="166.352" y="56.8303" width="203.988" height="370.887" rx="3.3717" fill="#CBC1FF"/>
<mask id="mask0_422_4480" style="mask-type:alpha" maskUnits="userSpaceOnUse" x="166" y="56" width="205" height="372">
<rect width="203.988" height="370.887" rx="3.3717" transform="matrix(-1 0 0 1 370.339 56.8303)" fill="#CBC1FF"/>
</mask>
<g mask="url(#mask0_422_4480)">
<rect opacity="0.55" width="8.96572" height="161.618" transform="matrix(-0.915618 0.40205 0.40205 0.915618 313.242 42.6057)" fill="#DAD3FF"/>
<rect opacity="0.55" width="47.2694" height="396.45" transform="matrix(-0.915618 0.40205 0.40205 0.915618 272.779 33.0402)" fill="#DAD3FF"/>
<rect opacity="0.55" width="9.32478" height="415.029" transform="matrix(-0.915618 0.40205 0.40205 0.915618 163.475 55.0635)" fill="#DAD3FF"/>
<rect opacity="0.55" width="59.3014" height="344.702" transform="matrix(-0.915618 0.40205 0.40205 0.915618 172.441 121.209)" fill="#DAD3FF"/>
</g>
<rect x="238.54" y="374.915" width="111.266" height="73.3345" rx="3.3717" fill="url(#paint0_linear_422_4480)"/>
<path opacity="0.25" d="M255.397 377.444H275.628L255.397 357.213V377.444Z" fill="black"/>
<rect x="236.854" y="374.072" width="111.266" height="70.8058" rx="3.3717" fill="#F5F5F5"/>
<path d="M292.486 398.944C290.546 398.944 288.972 397.372 288.972 395.43V389.097C288.972 387.157 290.544 385.583 292.486 385.583C294.427 385.583 296 387.156 296 389.097V395.43C296 397.37 294.427 398.944 292.486 398.944Z" fill="black"/>
<path opacity="0.2" d="M302.423 403.051C301.523 403.051 300.625 402.708 299.938 402.021C298.566 400.649 298.566 398.426 299.938 397.052L304.411 392.58C305.783 391.208 308.006 391.208 309.38 392.58C310.752 393.952 310.752 396.177 309.38 397.549L304.907 402.021C304.221 402.707 303.323 403.051 302.423 403.051Z" fill="black"/>
<path opacity="0.4" d="M312.865 412.988H306.541C304.601 412.988 303.027 411.415 303.027 409.474C303.027 407.533 304.6 405.96 306.541 405.96H312.865C314.805 405.96 316.379 407.533 316.379 409.474C316.379 411.415 314.806 412.988 312.865 412.988Z" fill="black"/>
<path opacity="0.5" d="M306.895 427.398C305.996 427.398 305.097 427.055 304.411 426.368L299.938 421.896C298.566 420.524 298.566 418.299 299.938 416.927C301.31 415.555 303.534 415.555 304.907 416.927L309.38 421.399C310.752 422.771 310.752 424.995 309.38 426.368C308.693 427.054 307.795 427.398 306.895 427.398Z" fill="black"/>
<path opacity="0.6" d="M292.486 433.366C290.546 433.366 288.972 431.794 288.972 429.852V423.529C288.972 421.589 290.544 420.015 292.486 420.015C294.427 420.015 296 421.587 296 423.529V429.852C296 431.792 294.427 433.366 292.486 433.366Z" fill="black"/>
<path opacity="0.7" d="M278.077 427.398C277.177 427.398 276.279 427.055 275.592 426.368C274.22 424.996 274.22 422.771 275.592 421.399L280.072 416.92C281.444 415.548 283.668 415.548 285.04 416.92C286.412 418.292 286.412 420.517 285.04 421.889L280.56 426.368C279.874 427.054 278.975 427.398 278.076 427.398H278.077Z" fill="black"/>
<path opacity="0.8" d="M278.433 412.988H272.11C270.17 412.988 268.596 411.415 268.596 409.474C268.596 407.533 270.168 405.96 272.11 405.96H278.433C280.373 405.96 281.947 407.533 281.947 409.474C281.947 411.415 280.375 412.988 278.433 412.988Z" fill="black"/>
<path opacity="0.85" d="M282.55 403.051C281.65 403.051 280.752 402.708 280.065 402.021L275.592 397.549C274.22 396.177 274.22 393.952 275.592 392.58C276.965 391.208 279.188 391.208 280.562 392.58L285.034 397.052C286.406 398.424 286.406 400.648 285.034 402.021C284.347 402.707 283.449 403.051 282.55 403.051Z" fill="black"/>
<path d="M253.713 374.072H273.943L253.713 353.842V374.072Z" fill="#F5F5F5"/>
<g opacity="0.25">
<rect x="200.068" y="228.033" width="225.061" height="86.8214" rx="3.3717" fill="black"/>
<path d="M215.241 314.855H235.471L215.241 335.085V314.855Z" fill="black"/>
</g>
<rect x="198.382" y="227.191" width="225.061" height="84.2926" rx="3.3717" fill="#F5F5F5"/>
<rect x="215.24" y="244.049" width="50.5755" height="50.5755" rx="3.3717" fill="#EE3135"/>
<path d="M240.528 285.353C242.39 285.353 243.9 283.843 243.9 281.981C243.9 280.119 242.39 278.609 240.528 278.609C238.666 278.609 237.156 280.119 237.156 281.981C237.156 283.843 238.666 285.353 240.528 285.353Z" fill="white"/>
<path d="M240.485 273.552C240.012 273.552 239.558 273.348 239.217 272.98C238.875 272.613 238.672 272.112 238.651 271.58L238.001 256.285C237.987 255.901 238.042 255.517 238.163 255.158C238.284 254.799 238.468 254.471 238.704 254.194C238.941 253.917 239.225 253.697 239.539 253.547C239.853 253.397 240.191 253.32 240.532 253.321C240.874 253.321 241.212 253.4 241.526 253.551C241.84 253.703 242.124 253.925 242.359 254.203C242.595 254.482 242.778 254.812 242.898 255.172C243.017 255.533 243.07 255.917 243.054 256.302L242.309 271.594C242.285 272.121 242.082 272.618 241.743 272.982C241.403 273.346 240.953 273.55 240.485 273.552Z" fill="white"/>
<rect x="279.304" y="255.007" width="127.282" height="5.05755" fill="#BBBBBB"/>
<rect x="279.304" y="266.808" width="127.282" height="5.05755" fill="#BBBBBB"/>
<rect x="279.304" y="278.609" width="77.5492" height="5.05755" fill="#BBBBBB"/>
<path d="M215.24 311.483H235.47L215.24 331.713V311.483Z" fill="#F5F5F5"/>
<g opacity="0.25">
<rect x="296.162" y="103.281" width="111.266" height="73.3345" rx="3.3717" fill="black"/>
<path d="M311.334 176.615H331.564L311.334 196.845V176.615Z" fill="black"/>
</g>
<rect x="294.477" y="102.438" width="111.266" height="70.8058" rx="3.3717" fill="#F5F5F5"/>
<g clip-path="url(#clip1_422_4480)">
<path d="M362.376 162.054V113.866H372.014V162.054H362.376ZM349.526 125.913H359.163V162.054H349.526V125.913ZM336.675 137.96H346.313V162.054H336.675V137.96ZM323.825 150.007H333.463V162.054H323.825V150.007Z" fill="black"/>
</g>
<circle cx="376.028" cy="157.235" r="9.63766" fill="#EE3135"/>
<rect x="370.245" y="153.38" width="2.57004" height="13.814" rx="1.28502" transform="rotate(-45 370.245 153.38)" fill="white"/>
<rect x="379.883" y="151.453" width="2.57004" height="13.814" rx="1.28502" transform="rotate(45 379.883 151.453)" fill="white"/>
<path d="M311.335 173.243H331.565L311.335 193.474V173.243Z" fill="#F5F5F5"/>
<g opacity="0.25">
<path d="M132.635 69.4385C132.635 68.1834 132.635 67.5558 132.8 67.0479C133.133 66.0215 133.938 65.2167 134.965 64.8832C135.472 64.7181 136.1 64.7181 137.355 64.7181H235.64C237.837 64.7181 238.935 64.7181 239.824 65.0069C241.62 65.5906 243.029 66.9989 243.612 68.7953C243.901 69.6841 243.901 70.7823 243.901 72.9788V134.175C243.901 135.43 243.901 136.058 243.736 136.566C243.402 137.592 242.598 138.397 241.571 138.731C241.063 138.896 240.436 138.896 239.181 138.896H137.355C136.1 138.896 135.472 138.896 134.965 138.731C133.938 138.397 133.133 137.592 132.8 136.566C132.635 136.058 132.635 135.43 132.635 134.175V69.4385Z" fill="black"/>
<path d="M225.394 138.896H204.32L225.394 159.126V138.896Z" fill="black"/>
</g>
<rect x="130.947" y="64.7181" width="111.266" height="70.8058" rx="3.3717" fill="#F5F5F5"/>
<g clip-path="url(#clip2_422_4480)">
<path d="M198.931 107.591C195.54 104.543 191.162 102.86 186.625 102.86C182.089 102.86 177.71 104.543 174.32 107.591C174.033 107.841 173.799 108.147 173.63 108.49C173.461 108.833 173.362 109.207 173.337 109.589C173.312 109.971 173.363 110.355 173.486 110.717C173.609 111.079 173.802 111.413 174.054 111.699C174.306 111.986 174.611 112.219 174.953 112.384C175.294 112.55 175.665 112.646 176.043 112.666C176.422 112.685 176.8 112.629 177.157 112.5C177.513 112.37 177.841 112.171 178.121 111.912C180.464 109.806 183.49 108.643 186.625 108.643C189.76 108.643 192.786 109.806 195.13 111.912C195.697 112.422 196.441 112.683 197.198 112.638C197.956 112.593 198.664 112.245 199.168 111.672C199.673 111.098 199.931 110.346 199.886 109.58C199.842 108.814 199.498 108.098 198.931 107.588V107.591Z" fill="#EE3135"/>
<path d="M186.624 90.9835C178.945 90.9728 171.551 93.9238 165.95 99.2349C165.666 99.4918 165.436 99.8033 165.273 100.151C165.11 100.499 165.018 100.876 165.001 101.261C164.984 101.646 165.043 102.03 165.175 102.391C165.307 102.752 165.509 103.083 165.769 103.364C166.029 103.645 166.342 103.871 166.69 104.028C167.037 104.186 167.412 104.271 167.793 104.28C168.173 104.289 168.552 104.221 168.906 104.08C169.261 103.938 169.583 103.727 169.856 103.458C174.404 99.159 180.398 96.7673 186.624 96.7673C192.85 96.7673 198.843 99.159 203.392 103.458C203.664 103.727 203.987 103.938 204.341 104.08C204.695 104.221 205.074 104.289 205.455 104.28C205.835 104.271 206.21 104.186 206.558 104.028C206.905 103.871 207.218 103.645 207.478 103.364C207.738 103.083 207.94 102.752 208.072 102.391C208.204 102.03 208.263 101.646 208.247 101.261C208.23 100.876 208.137 100.499 207.974 100.151C207.811 99.8033 207.581 99.4918 207.298 99.2349C201.696 93.9238 194.303 90.9728 186.624 90.9835Z" fill="#EE3135"/>
<path d="M214.641 89.9039C206.93 82.9475 196.957 79.1029 186.623 79.1029C176.289 79.1029 166.317 82.9475 158.606 89.9039C158.316 90.1542 158.079 90.4605 157.908 90.8049C157.737 91.1493 157.635 91.5247 157.61 91.9092C157.584 92.2937 157.635 92.6795 157.759 93.0439C157.883 93.4083 158.078 93.7439 158.332 94.0311C158.586 94.3183 158.895 94.5512 159.239 94.7162C159.584 94.8811 159.957 94.9748 160.338 94.9917C160.719 95.0087 161.099 94.9485 161.456 94.8147C161.814 94.6809 162.141 94.4762 162.419 94.2127C169.081 88.2051 177.696 84.8851 186.623 84.8851C195.549 84.8851 204.164 88.2051 210.826 94.2127C211.391 94.724 212.134 94.9872 212.892 94.9445C213.649 94.9018 214.359 94.5565 214.865 93.9848C215.37 93.413 215.631 92.6616 215.588 91.8958C215.546 91.1299 215.205 90.4124 214.639 89.9011L214.641 89.9039Z" fill="#EE3135"/>
<path d="M186.623 124.269C189.03 124.269 190.981 122.296 190.981 119.862C190.981 117.428 189.03 115.455 186.623 115.455C184.216 115.455 182.265 117.428 182.265 119.862C182.265 122.296 184.216 124.269 186.623 124.269Z" fill="#EE3135"/>
<rect x="-0.221208" y="-1.78402" width="8.22841" height="57.9978" rx="4.11421" transform="matrix(0.785436 0.618943 -0.610483 0.792029 203.468 74.5338)" fill="#EE3135" stroke="#F5F5F5" stroke-width="2.52878"/>
</g>
<path d="M225.394 135.524H205.163L225.394 155.754V135.524Z" fill="#F5F5F5"/>
</g>
<defs>
<linearGradient id="paint0_linear_422_4480" x1="294.173" y1="374.915" x2="294.173" y2="448.249" gradientUnits="userSpaceOnUse">
<stop offset="0.490971" stop-opacity="0.25"/>
<stop offset="1" stop-opacity="0.28"/>
</linearGradient>
<clipPath id="clip0_422_4480">
<rect width="523.516" height="467" fill="white"/>
</clipPath>
<clipPath id="clip1_422_4480">
<rect width="48.1883" height="48.1883" fill="white" transform="translate(323.825 113.866)"/>
</clipPath>
<clipPath id="clip2_422_4480">
<rect width="69.9113" height="49.1455" fill="white" transform="translate(151.714 75.5037)"/>
</clipPath>
</defs>
</svg>
