<?xml version="1.0" encoding="UTF-8"?>
<svg width="80px" height="80px" viewBox="0 0 80 80" version="1.1" xmlns="http://www.w3.org/2000/svg" xmlns:xlink="http://www.w3.org/1999/xlink">
    <!-- Generator: Sketch 55.2 (78181) - https://sketchapp.com -->
    <title>148-G40px</title>
    <desc>Created with Sketch.</desc>
    <g id="Page-1" stroke="none" stroke-width="1" fill="none" fill-rule="evenodd">
        <g id="DSGN-256_Antivirus_1460" transform="translate(-150.000000, -777.000000)">
            <g id="148-G40px" transform="translate(150.000000, 777.000000)">
                <circle id="Oval-Copy-12" fill="#7700FF" cx="40" cy="40" r="40"></circle>
                <g id="148-B32px-Copy" transform="translate(8.000000, 8.000000)">
                    <path d="M33,47 C32.4,47 32,47.4 32,48 C32,48.6 32.4,49 33,49 C33.6,49 34,48.6 34,48 C34,47.4 33.6,47 33,47 L33,47 Z" id="Path" fill="#FFFFFF" fill-rule="nonzero"></path>
                    <path d="M53.8,28 C54,28 54,28 53.8,28 L54,49.8 C54,49.8 54,50 53.8,50 L42,50 C42,50 41.8,50 41.8,49.8 L41.8,28.2 C41.8,28.2 41.8,28 42,28 L53.8,28 L53.8,28 Z M53.8,26 L42,26 C40.8,26 39.8,27 39.8,28.2 L39.8,50 C39.8,51.2 40.8,52.2 42,52.2 L53.8,52.2 C55,52.2 56,51.2 56,50 L56,28.2 C56,27 55,26 53.8,26 L53.8,26 Z" id="Shape" fill="#FFFFFF" fill-rule="nonzero"></path>
                    <rect id="Rectangle" fill="#FFFFFF" fill-rule="nonzero" x="40" y="44" width="16" height="2"></rect>
                    <circle id="Oval" fill="#FFFFFF" fill-rule="nonzero" cx="48" cy="48" r="2"></circle>
                    <path d="M20,40.8 C17.4,41.2 15.4,41.6 14,42 L14,44 C15.2,43.8 17.2,43.2 20,42.8 L20,40.8 Z" id="Path" fill="#FFFFFF" fill-rule="nonzero"></path>
                    <path d="M54,14 L10,14 C9,14 8,15 8,16 L8,38 C8,39.2 9,40 10,40 L20,40 L20,38 L10,38 L10,16 L54,16 L54,16 L54,24 L55.4,24 C55.6,24 55.8,24 56,24.2 L56,16 C56,15 55,14 54,14 Z" id="Path" fill="#FFFFFF" fill-rule="nonzero"></path>
                    <path d="M38,50 L24.2,50 C24.2,50 24,50 24,49.8 L24,46 L38,46 L38,44 L24,44 L24,22.2 C24,22.2 24,22 24.2,22 L42,22 C42,22 42.2,22 42.2,22.2 L42.2,24 L44.2,24 L44.2,22.2 C44.2,21 43.2,20 42,20 L24.2,20 C23,20 22,21 22,22.2 L22,50 C22,51.2 23,52.2 24.2,52.2 L38.2,52.2 C38.2,52 38,51.8 38,51.6 L38,50 Z" id="Path" fill="#FFFFFF" fill-rule="nonzero"></path>
                    <rect id="Rectangle" x="0" y="0" width="64" height="64"></rect>
                </g>
            </g>
        </g>
    </g>
</svg>