<?xml version="1.0" encoding="utf-8"?>
<!-- Generator: Adobe Illustrator 23.0.2, SVG Export Plug-In . SVG Version: 6.00 Build 0)  -->
<svg version="1.1" id="Слой_1" xmlns="http://www.w3.org/2000/svg" xmlns:xlink="http://www.w3.org/1999/xlink" x="0px" y="0px"
	 width="400px" height="550px" viewBox="0 0 400 550" style="enable-background:new 0 0 400 550;" xml:space="preserve">
<style type="text/css">
	.st0{fill:#F1F3F5;}
	.st1{fill:#F2DCD4;}
	.st2{fill:#E2A489;}
	.st3{fill:#C9C7E2;}
</style>
<rect y="0" class="st0" width="400" height="550"/>
<path class="st1" d="M193.2,256.1c10.5-16.6,28.1-27.3,48.6-27.3c10.3,0,20,2.9,28.2,7.9c-21-16.2-48.4-23.7-76.6-18.5
	c-0.1,0.1-83.7,15.5-193.4,35.8v286.6L193.2,256.1z"/>
<path class="st2" d="M193.2,256.1"/>
<path class="st3" d="M400,332.5L274.8,240h-0.1c-9.1-7.1-20.5-11.2-32.9-11.2c-20.5,0.1-38.1,10.7-48.6,27.3L0,540.6v9.4h400V332.5z
	"/>
</svg>
