<?xml version="1.0" encoding="utf-8"?>
<!-- Generator: Adobe Illustrator 22.1.0, SVG Export Plug-In . SVG Version: 6.00 Build 0)  -->
<svg version="1.1" id="Слой_1" xmlns="http://www.w3.org/2000/svg" xmlns:xlink="http://www.w3.org/1999/xlink" x="0px" y="0px"
	 width="51.3px" height="85.5px" viewBox="0 0 51.3 85.5" style="enable-background:new 0 0 51.3 85.5;" xml:space="preserve">
<style type="text/css">
.st0{fill:#FF4F12;}
.st1{fill: #6d00bd;}
</style>
<g>
	<path class="st0" d="M40.8,85.5H5.9c-2.5,0-4-2.3-4-4.2c0-1.2,0.5-2.2,1.2-3l15.2-15.2L40.8,85.5z"/>
	<g>
		<g>
			<defs>
				<path id="SVGID_1_" d="M18.4,63.1L3.2,78.3c-0.8,0.8-1.2,1.8-1.2,3c0,2,1.5,4.2,4,4.2h34.9L18.4,63.1z"/>
			</defs>
			<clipPath id="SVGID_2_">
				<use xlink:href="#SVGID_1_"  style="overflow:visible;"/>
			</clipPath>
		</g>
	</g>
	<path class="st1" d="M5.9,85.5c-2.6,0-5.9-2.1-5.9-6.3V32.3C0,26-0.3,21.5,4.2,17l17-17l30.1,30.2L3.2,78.3c-0.8,0.8-1.2,1.8-1.2,3
		C1.9,83.2,3.4,85.5,5.9,85.5z"/>
</g>
</svg>
