<svg width="56" height="56" viewBox="0 0 56 56" fill="none" xmlns="http://www.w3.org/2000/svg">
<path fill-rule="evenodd" clip-rule="evenodd" d="M28 56C43.464 56 56 43.464 56 28C56 12.536 43.464 0 28 0C12.536 0 0 12.536 0 28C0 43.464 12.536 56 28 56Z" fill="#FF4F12"/>
<path fill-rule="evenodd" clip-rule="evenodd" d="M19.4862 13.2998H36.5137C37.2242 13.2998 37.8 13.8756 37.8 14.5861V41.4136C37.8 42.1241 37.2242 42.6998 36.5137 42.6998H19.4862C18.7757 42.6998 18.2 42.1241 18.2 41.4136V14.5861C18.2 13.8756 18.7757 13.2998 19.4862 13.2998ZM36.575 14.5861C36.575 14.5493 36.5505 14.5248 36.5137 14.5248H19.4862C19.4495 14.5248 19.425 14.5493 19.425 14.5861V41.4136C19.425 41.4503 19.4495 41.4748 19.4862 41.4748H36.5137C36.5505 41.4748 36.575 41.4503 36.575 41.4136V14.5861Z" fill="white"/>
<path d="M28 40.2498C28.3307 40.2498 28.6125 39.9803 28.6125 39.6373C28.6125 39.2943 28.3307 39.0248 28 39.0248C27.6692 39.0248 27.3875 39.2943 27.3875 39.6373C27.3875 39.9803 27.6692 40.2498 28 40.2498Z" fill="white"/>
<path d="M18.2 36.5748H37.8V37.7998H18.2V36.5748Z" fill="white"/>
</svg>
