<svg width="56" height="56" viewBox="0 0 56 56" fill="none" xmlns="http://www.w3.org/2000/svg">
<path fill-rule="evenodd" clip-rule="evenodd" d="M28 56C43.464 56 56 43.464 56 28C56 12.536 43.464 0 28 0C12.536 0 0 12.536 0 28C0 43.464 12.536 56 28 56Z" fill="#FF4F12"/>
<path fill-rule="evenodd" clip-rule="evenodd" d="M14.5493 19.4248H41.4503C42.1363 19.4248 42.6998 19.9883 42.6998 20.6743V34.1248C42.6998 34.8108 42.1363 35.3743 41.4503 35.3743H14.5493C13.8633 35.3743 13.2998 34.8108 13.2998 34.1248V20.6743C13.2998 19.9883 13.8633 19.4248 14.5493 19.4248ZM41.4748 20.6743L41.4503 20.6498H14.5493L14.5248 34.1248L41.4503 34.1493L41.4748 20.6743Z" fill="white"/>
<path d="M27.9753 35.2886C22.6956 35.2886 18.7388 36.0971 16.9748 36.5381V37.7998C18.4816 37.4078 22.5363 36.5136 27.9753 36.5136C33.4633 36.5136 37.5426 37.4201 39.0248 37.8121V36.5503C37.2731 36.0971 33.3041 35.2886 27.9753 35.2886Z" fill="white"/>
</svg>
