<svg width="56" height="56" viewBox="0 0 56 56" fill="none" xmlns="http://www.w3.org/2000/svg">
<path fill-rule="evenodd" clip-rule="evenodd" d="M28 56C43.464 56 56 43.464 56 28C56 12.536 43.464 0 28 0C12.536 0 0 12.536 0 28C0 43.464 12.536 56 28 56Z" fill="#FF4F12"/>
<path d="M27.3873 14.1083H28.6123V16.9748H27.3873V14.1083Z" fill="white"/>
<path d="M35.3708 36.2233L36.237 35.3571L38.2639 37.384L37.3977 38.2502L35.3708 36.2233Z" fill="white"/>
<path d="M17.7478 18.6142L18.614 17.748L20.6409 19.7749L19.7747 20.6411L17.7478 18.6142Z" fill="white"/>
<path d="M35.3725 19.7679L37.3994 17.741L38.2656 18.6072L36.2387 20.6341L35.3725 19.7679Z" fill="white"/>
<path d="M17.7461 37.391L19.773 35.3641L20.6392 36.2303L18.6123 38.2572L17.7461 37.391Z" fill="white"/>
<path d="M27.3873 14.1083H28.6123V16.9748H27.3873V14.1083Z" fill="white"/>
<path d="M27.3873 39.0248H28.6123V41.8913H27.3873V39.0248Z" fill="white"/>
<path d="M27.3873 19.4248H28.6123V26.7748H27.3873V19.4248Z" fill="white"/>
<path d="M13.8143 27.3873H16.9748V28.6123H13.8143V27.3873Z" fill="white"/>
<path d="M39.0248 27.3873H42.1976V28.6123H39.0248V27.3873Z" fill="white"/>
<path d="M29.2248 27.3873H36.5748V28.6123H29.2248V27.3873Z" fill="white"/>
<path fill-rule="evenodd" clip-rule="evenodd" d="M26.1746 27.9998C26.1746 26.9953 26.9953 26.1746 27.9998 26.1746C29.0166 26.1746 29.8251 26.9953 29.8251 27.9998C29.8251 29.0043 29.0043 29.8251 27.9998 29.8251C26.9953 29.8251 26.1746 29.0043 26.1746 27.9998ZM28.6001 27.9998C28.6001 27.6691 28.3306 27.3996 27.9998 27.3996C27.6691 27.3996 27.3996 27.6691 27.3996 27.9998C27.3996 28.3306 27.6691 28.6001 27.9998 28.6001C28.3306 28.6001 28.6001 28.3306 28.6001 27.9998Z" fill="white"/>
<path fill-rule="evenodd" clip-rule="evenodd" d="M13.2998 27.9998C13.2998 19.8781 19.8781 13.2998 27.9998 13.2998C36.1216 13.2998 42.6998 19.8781 42.6998 27.9998C42.6998 36.1216 36.1216 42.6998 27.9998 42.6998C19.8781 42.6998 13.2998 36.1216 13.2998 27.9998ZM41.4748 27.9998C41.4748 20.5641 35.4356 14.5248 27.9998 14.5248C20.5641 14.5248 14.5248 20.5641 14.5248 27.9998C14.5248 35.4356 20.5641 41.4748 27.9998 41.4748C35.4356 41.4748 41.4748 35.4356 41.4748 27.9998Z" fill="white"/>
</svg>
