<?xml version="1.0" encoding="UTF-8"?>
<svg width="19px" height="21px" viewBox="0 0 19 21" version="1.1" xmlns="http://www.w3.org/2000/svg" xmlns:xlink="http://www.w3.org/1999/xlink">
    <!-- Generator: Sketch 55.2 (78181) - https://sketchapp.com -->
    <title>icon_207</title>
    <desc>Created with Sketch.</desc>
    <g id="Page-1" stroke="none" stroke-width="1" fill="none" fill-rule="evenodd" stroke-linecap="round" stroke-linejoin="round">
        <g id="DSGN-256_Antivirus_1460" transform="translate(-958.000000, -1249.000000)" stroke="#7800FF">
            <g id="icon_207" transform="translate(959.000000, 1249.000000)">
                <path d="M15.4285714,8.48979592 L16.3265306,8.48979592 L16.3265306,18.6530612 C16.3265306,19.1836735 15.9183673,19.5918367 15.3877551,19.5918367 L15.3877551,19.5918367 L1.71428571,19.5918367 C1.2244898,19.5918367 0.816326531,19.1836735 0.816326531,18.6938776 L0.816326531,8.48979592 L1.75510204,8.48979592" id="Shape" stroke-width="1.5"></path>
                <polyline id="Shape" stroke-width="1.5" points="7.46938776 8.48979592 0.0408163265 8.48979592 0.0408163265 4.81632653 17.1020408 4.81632653 17.1020408 8.48979592 9.67346939 8.48979592"></polyline>
                <polygon id="Rectangle-path" stroke-width="1.5" points="7.46938776 4.81632653 9.67346939 4.81632653 9.67346939 19.6326531 7.46938776 19.6326531"></polygon>
                <path d="M12.6530612,2.24489796 C10.6122449,2.24489796 8.57142857,4.7755102 8.57142857,4.7755102 L12.4489796,4.7755102 C14.4897959,4.81632653 14.5714286,2.24489796 12.6530612,2.24489796 Z" id="Shape"></path>
                <path d="M4.48979592,2.24489796 C6.53061224,2.24489796 8.57142857,4.7755102 8.57142857,4.7755102 L4.69387755,4.7755102 C2.65306122,4.81632653 2.57142857,2.24489796 4.48979592,2.24489796 Z" id="Shape"></path>
                <path d="M10.8163265,0.734693878 C10.8163265,0.734693878 8.57142857,1.46938776 8.57142857,4.81632653" id="Shape"></path>
                <path d="M7.83673469,0 C7.2244898,1.63265306 7.51020408,3.46938776 8.57142857,4.81632653" id="Shape"></path>
            </g>
        </g>
    </g>
</svg>