<svg width="174" height="40" viewBox="0 0 174 40" fill="none" xmlns="http://www.w3.org/2000/svg">
<path fill-rule="evenodd" clip-rule="evenodd" d="M167.121 25.877C167.043 25.671 163.618 16.462 163.618 16.462H160.241V29.306H163.095V22.054C163.095 22.054 164.844 26.904 165.575 28.999L165.69 29.339H168.552L168.667 28.999C169.397 26.904 171.148 22.054 171.148 22.054V29.306H174V16.462H170.623C170.623 16.462 167.2 25.671 167.12 25.877H167.121ZM89.0643 16.436H78.7836V19.266H82.3756V29.256H85.4752V19.259H89.0643V16.436ZM109.669 19.319C109.489 21.375 109.273 23.856 109.054 25.907C108.988 26.4997 108.853 27.0827 108.652 27.644C108.312 28.606 107.623 29.218 106.617 29.391C105.782 29.5302 104.927 29.4896 104.109 29.272C104.253 28.321 104.391 27.398 104.533 26.45C104.667 26.474 104.781 26.497 104.894 26.516C105.648 26.646 106.013 26.382 106.089 25.605C106.342 22.983 106.582 20.358 106.829 17.735C106.829 17.735 106.905 16.875 106.947 16.436H116.773V29.276H113.705V19.383C113.509 19.383 110.678 19.391 109.612 19.378L109.669 19.318V19.319ZM34.3621 29.31V11.14H42.4389C44.4926 11.14 46.122 11.658 47.323 12.698C48.524 13.737 49.1245 15.194 49.1245 17.069C49.1245 18.945 48.524 20.399 47.323 21.429C46.122 22.459 44.4926 22.975 42.4389 22.975H37.7169V29.31H34.3621ZM37.7169 14.206V19.908H42.3398C43.4828 19.908 44.3405 19.658 44.912 19.16C45.4825 18.662 45.7697 17.965 45.7697 17.07C45.7697 16.174 45.4835 15.473 44.912 14.966C44.3405 14.46 43.4828 14.206 42.3398 14.206H37.7159H37.7169ZM61.4489 17.88C62.8151 19.08 63.4987 20.744 63.4987 22.873C63.4987 25.001 62.8151 26.666 61.4489 27.865C60.0818 29.065 58.4614 29.665 56.5888 29.665C54.7173 29.665 53.1019 29.065 51.7447 27.865C50.3836 26.665 49.705 25.001 49.705 22.873C49.705 20.744 50.3836 19.08 51.7437 17.88C53.1019 16.681 54.7173 16.081 56.5888 16.081C58.4604 16.081 60.0818 16.681 61.4489 17.881V17.88ZM54.0297 25.597C54.3664 25.9298 54.7662 26.192 55.2056 26.3683C55.6451 26.5447 56.1153 26.6316 56.5888 26.624C57.5837 26.624 58.4404 26.282 59.161 25.597C59.8816 24.913 60.2429 24.006 60.2429 22.873C60.2429 21.741 59.8826 20.837 59.162 20.162C58.4721 19.4982 57.5475 19.1337 56.5898 19.148C55.595 19.148 54.7423 19.485 54.0297 20.162C53.3171 20.837 52.9598 21.742 52.9598 22.872C52.9598 24.006 53.3171 24.913 54.0297 25.597ZM74.8192 24.242L77.4294 25.964C76.2204 28.431 74.2468 29.664 71.5145 29.664C69.6088 29.664 68.0265 29.04 66.7664 27.789C65.5074 26.539 64.8778 24.9 64.8778 22.873C64.8778 20.863 65.5244 19.227 66.8175 17.969C68.1086 16.711 69.6759 16.081 71.5145 16.081C72.9056 16.081 74.1066 16.385 75.1175 16.993C76.1283 17.601 76.857 18.463 77.3053 19.577L74.6711 21.352C74.0076 19.882 72.9467 19.148 71.4884 19.148C70.5276 19.148 69.7289 19.49 69.0904 20.174C68.4529 20.859 68.1336 21.758 68.1336 22.873C68.1336 24.005 68.4479 24.913 69.0794 25.597C69.7079 26.281 70.5116 26.623 71.4884 26.623C72.3001 26.623 72.9637 26.425 73.4771 26.028C73.9905 25.631 74.4379 25.036 74.8192 24.242ZM102.909 23.658H93.1918C93.2908 24.638 93.6552 25.42 94.2847 26.003C94.9152 26.586 95.7019 26.877 96.6467 26.877C98.188 26.877 99.347 26.091 100.127 24.52L102.537 25.914C101.344 28.414 99.364 29.664 96.5956 29.664C94.7901 29.664 93.2578 29.031 91.9978 27.764C90.7387 26.497 90.1102 24.867 90.1102 22.874C90.1102 20.88 90.7477 19.249 92.0238 17.982C93.2989 16.715 94.8732 16.081 96.7458 16.081C98.5513 16.081 100.031 16.684 101.183 17.894C102.333 19.101 102.909 20.642 102.909 22.518V23.658ZM96.6477 18.565C95.817 18.565 95.0924 18.822 94.4718 19.338C93.8591 19.84 93.4128 20.5157 93.1918 21.276H99.9515C99.8013 20.431 99.438 19.768 98.8586 19.287C98.2781 18.806 97.5404 18.565 96.6467 18.565H96.6477ZM131.234 23.658H121.517C121.616 24.638 121.979 25.42 122.611 26.003C123.239 26.586 124.027 26.877 124.973 26.877C126.512 26.877 127.672 26.091 128.451 24.52L130.862 25.914C129.669 28.414 127.688 29.664 124.921 29.664C123.115 29.664 121.583 29.031 120.324 27.764C119.064 26.497 118.435 24.867 118.435 22.874C118.435 20.88 119.073 19.249 120.349 17.982C121.624 16.715 123.199 16.081 125.071 16.081C126.876 16.081 128.355 16.684 129.507 17.894C130.658 19.101 131.234 20.642 131.234 22.518V23.658ZM124.972 18.565C124.142 18.565 123.418 18.822 122.797 19.338C122.184 19.8403 121.738 20.5159 121.517 21.276H128.276C128.127 20.431 127.764 19.768 127.183 19.287C126.603 18.806 125.866 18.565 124.972 18.565ZM156.528 17.88C157.895 19.08 158.58 20.744 158.58 22.873C158.58 25.001 157.895 26.666 156.528 27.865C155.162 29.065 153.541 29.665 151.669 29.665C149.798 29.665 148.182 29.065 146.824 27.865C145.464 26.665 144.785 25.001 144.785 22.873C144.785 20.744 145.464 19.08 146.824 17.88C148.182 16.681 149.798 16.081 151.669 16.081C153.541 16.081 155.162 16.681 156.528 17.881V17.88ZM149.11 25.597C149.447 25.9298 149.846 26.192 150.286 26.3683C150.725 26.5447 151.196 26.6316 151.669 26.624C152.663 26.624 153.521 26.282 154.241 25.597C154.962 24.913 155.323 24.006 155.323 22.873C155.323 21.741 154.963 20.837 154.242 20.162C153.552 19.4983 152.628 19.1338 151.67 19.148C150.675 19.148 149.823 19.485 149.11 20.162C148.397 20.837 148.04 21.742 148.04 22.872C148.04 24.006 148.397 24.913 149.11 25.597Z" fill="black"/>
<path fill-rule="evenodd" clip-rule="evenodd" d="M145.434 29.248H141.654L136.136 22.709H136.092V29.249H133.049V16.443H136.092V22.482H136.136L141.24 16.442H144.869L139.503 22.549L145.434 29.248Z" fill="black"/>
<path d="M18.0145 40L8.00607 30L1.4145 36.586C1.13464 36.8657 0.94407 37.222 0.86687 37.6099C0.789669 37.9978 0.829309 38.3999 0.980777 38.7653C1.13224 39.1307 1.38874 39.443 1.71784 39.6628C2.04694 39.8826 2.43386 39.9999 2.82969 40H18.0145Z" fill="#FF4F12"/>
<path fill-rule="evenodd" clip-rule="evenodd" d="M24.0203 14L9.99344 0L2.04873 7.95C0.736978 9.26237 0.000130689 11.0412 0 12.896L0 37.013C0 37.8052 0.314967 38.565 0.875612 39.1251C1.43626 39.6853 2.19665 40 2.98953 40C2.57994 39.9998 2.1796 39.8782 1.83917 39.6507C1.49873 39.4231 1.23347 39.0998 1.07695 38.7217C0.920426 38.3435 0.879668 37.9274 0.959829 37.5261C1.03999 37.1247 1.23747 36.7562 1.52729 36.467C9.03634 28.9894 16.534 21.5004 24.0203 14Z" fill="#7800FF"/>
</svg>
